<svg width="151" height="57" viewBox="0 0 151 57" fill="none" xmlns="http://www.w3.org/2000/svg">
<path d="M41.0595 21.959C40.7833 21.959 40.5595 21.7351 40.5595 21.459V19.0807C40.5595 18.8045 40.7833 18.5807 41.0595 18.5807H43.7997C44.0759 18.5807 44.2997 18.8045 44.2997 19.0807V21.459C44.2997 21.7351 44.0759 21.959 43.7997 21.959H41.0595Z" fill="#EF1E24"/>
<path d="M46.7302 18.5807C46.454 18.5807 46.2302 18.8045 46.2302 19.0807V21.459C46.2302 21.7351 46.454 21.959 46.7302 21.959H49.4705C49.7466 21.959 49.9705 21.7351 49.9705 21.459V19.0807C49.9705 18.8045 49.7466 18.5807 49.4705 18.5807H46.7302Z" fill="#EF1E24"/>
<path d="M46.7302 23.7688C46.454 23.7688 46.2302 23.9926 46.2302 24.2688V26.5264C46.2302 26.8026 46.454 27.0264 46.7302 27.0264H49.4705C49.7466 27.0264 49.9705 26.8026 49.9705 26.5264V24.2688C49.9705 23.9926 49.7466 23.7688 49.4705 23.7688H46.7302Z" fill="#EF1E24"/>
<path d="M41.0595 23.7688C40.7833 23.7688 40.5595 23.9926 40.5595 24.2688V26.5264C40.5595 26.8026 40.7833 27.0264 41.0595 27.0264H43.7997C44.0759 27.0264 44.2997 26.8026 44.2997 26.5264V24.2688C44.2997 23.9926 44.0759 23.7688 43.7997 23.7688H41.0595Z" fill="#EF1E24"/>
<path fill-rule="evenodd" clip-rule="evenodd" d="M16.2664 35.2309C15.8464 35.2309 15.6136 34.7446 15.8769 34.4174L43.3567 0.272186C43.4883 0.108707 43.708 0.0447757 43.9067 0.112111L64.995 7.25678C65.3192 7.36662 65.6554 7.12553 65.6554 6.78322V3.51634C65.6554 3.2402 65.8793 3.01634 66.1554 3.01634H73.4805C73.7567 3.01634 73.9805 3.2402 73.9805 3.51634V9.90058C73.9805 10.2116 74.2615 10.4471 74.5677 10.3929L110.488 4.03334C110.668 4.00143 110.851 4.07054 110.965 4.21352L135.106 34.4187C135.368 34.7462 135.135 35.2309 134.716 35.2309H72.9987C72.8558 35.2309 72.7197 35.1698 72.6248 35.0629L45.4198 4.42771C45.2132 4.19507 44.8466 4.20558 44.6537 4.44969L27.3953 26.2869C27.3255 26.3752 27.2875 26.4844 27.2875 26.5969V34.7309C27.2875 35.007 27.0637 35.2309 26.7875 35.2309H16.2664ZM98.4437 25.4741C98.6127 25.464 98.765 25.3692 98.8487 25.2221L108.838 7.65471C109.015 7.34329 109.453 7.31368 109.67 7.59841L128.868 32.7383C129.119 33.0673 128.884 33.5417 128.47 33.5417H94.9691C94.8196 33.5417 94.678 33.4748 94.583 33.3594L89.2035 26.8196C88.9439 26.504 89.152 26.0271 89.5599 26.0029L98.4437 25.4741Z" fill="#EF1E24"/>
<path d="M105.712 22.097C105.712 21.8209 105.936 21.597 106.212 21.597H108.711C108.988 21.597 109.211 21.8209 109.211 22.097V28.8189C109.211 29.095 108.988 29.3189 108.711 29.3189H106.212C105.936 29.3189 105.712 29.095 105.712 28.8189V22.097Z" fill="#EF1E24"/>
<path d="M112.969 21.597C112.693 21.597 112.469 21.8209 112.469 22.097V28.8189C112.469 29.095 112.693 29.3189 112.969 29.3189H115.347C115.624 29.3189 115.847 29.095 115.847 28.8189V22.097C115.847 21.8209 115.624 21.597 115.347 21.597H112.969Z" fill="#EF1E24"/>
<path d="M19.2222 55.9833H12.2359V54.327L13.9771 54.1784C14.2744 54.1359 14.3169 54.051 14.3169 53.7537V45.6843H14.232L11.1954 52.9255H7.73404L4.7399 45.6631H4.63372V53.7324C4.63372 54.0722 4.65496 54.1147 4.97348 54.1571L6.7997 54.327V55.9833H0.344238V54.327L1.68205 54.1784C1.97934 54.1359 2.02181 54.0722 2.02181 53.7537V42.8601C2.02181 42.5416 1.97934 42.4778 1.68205 42.4354L0.344238 42.2867V40.6092H6.03524L9.73014 50.2286H9.81508L13.7011 40.6092H19.2222V42.2655L17.7995 42.4354C17.4809 42.4778 17.4597 42.5203 17.4597 42.8388V53.7537C17.4597 54.0297 17.5234 54.1147 17.7995 54.1571L19.2222 54.327V55.9833Z" fill="#EF1E24"/>
<path d="M34.1486 55.9833H30.5599L29.392 54.6243C28.2665 55.6861 26.8862 56.2382 25.1025 56.2382C22.257 56.2382 20.2821 54.6668 20.2821 51.8637C20.2821 49.8889 21.3014 48.3812 23.34 47.5318C22.9365 46.8947 22.5543 46.0878 22.5543 45.0685C22.5543 42.8813 24.2743 41.5647 26.6527 41.5647C28.1816 41.5647 29.7317 42.0531 30.4325 42.4991V45.833L28.1603 45.748L27.9055 44.3253C27.8631 44.1129 27.7993 44.0492 27.6082 43.9855C27.3959 43.9218 27.1198 43.9006 26.8438 43.9006C25.9944 43.9006 25.5909 44.389 25.5909 45.0685C25.5909 45.7905 25.9519 46.3851 26.7588 47.3194L29.1372 50.1225C29.392 49.3368 29.5406 48.4024 29.6256 47.7654H33.278V49.4005L32.3012 49.5916C32.0464 49.6341 31.9827 49.6765 31.9402 49.9526C31.7703 50.7595 31.5155 51.6089 31.1545 52.3522L32.4923 53.8811C32.5985 54.0085 32.7046 54.1147 32.8958 54.1359L34.1486 54.327V55.9833ZM27.6719 52.6919L24.8689 49.5067C23.9558 49.8889 23.3612 50.6109 23.3612 51.7151C23.3612 52.7556 23.9133 53.69 25.3573 53.69C26.1855 53.69 27.0137 53.4139 27.6719 52.6919Z" fill="#EF1E24"/>
<path d="M48.9022 55.9833H44.2729L42.3618 50.6533C42.107 49.9314 41.8309 49.6978 41.1089 49.6978H40.1109V53.69C40.1109 54.0297 40.1321 54.0722 40.4506 54.1147L41.9371 54.2845V55.9833H35.1631V54.2845L36.5009 54.1359C36.7982 54.1147 36.8407 54.0297 36.8407 53.7112V42.8601C36.8407 42.5416 36.7982 42.4778 36.5009 42.4354L35.1631 42.2867V40.6092H42.4043C46.2266 40.6092 47.352 42.6477 47.352 44.8562C47.352 47.0434 46.2053 48.2113 44.549 48.9333C45.1648 49.2306 45.4409 49.7402 45.7806 50.6321L46.9486 53.6687C47.1184 53.9873 47.2671 54.0297 47.5856 54.0722L48.9022 54.2845V55.9833ZM40.1109 47.4893H41.0877C42.6166 47.4893 43.9757 47.1283 43.9757 45.0473C43.9757 43.4122 43.0625 42.9238 41.1726 42.9238H40.1109V47.4893Z" fill="#EF1E24"/>
<path d="M67.1712 55.9833H62.542L60.6308 50.6533C60.376 49.9313 60.0999 49.6978 59.3779 49.6978H58.3799V53.69C58.3799 54.0297 58.4011 54.0722 58.7197 54.1147L60.2061 54.2845V55.9833H53.4321V54.2845L54.7699 54.1359C55.0672 54.1147 55.1097 54.0297 55.1097 53.7112V42.8601C55.1097 42.5415 55.0672 42.4778 54.7699 42.4354L53.4321 42.2867V40.6092H60.6733C64.4956 40.6092 65.6211 42.6477 65.6211 44.8562C65.6211 47.0434 64.4744 48.2113 62.818 48.9333C63.4338 49.2306 63.7099 49.7402 64.0497 50.6321L65.2176 53.6687C65.3875 53.9872 65.5361 54.0297 65.8546 54.0722L67.1712 54.2845V55.9833ZM58.3799 47.4893H59.3567C60.8856 47.4893 62.2447 47.1283 62.2447 45.0473C62.2447 43.4122 61.3316 42.9238 59.4417 42.9238H58.3799V47.4893Z" fill="#1F3A65"/>
<path d="M74.2236 56.2382C69.0847 56.2382 66.9187 52.9467 66.9187 48.3387C66.9187 43.7944 69.4669 40.3331 74.5209 40.3331C79.5536 40.3331 81.7196 43.7944 81.7196 48.0627C81.7196 53.0529 79.2775 56.2382 74.2236 56.2382ZM74.351 53.6263C76.7293 53.6263 78.3432 52.161 78.3432 48.2538C78.3432 44.5801 76.878 43.0087 74.4784 43.0087C72.0364 43.0087 70.3163 44.6226 70.3163 48.275C70.3163 52.0973 71.909 53.6263 74.351 53.6263Z" fill="#1F3A65"/>
<path d="M89.9118 56.2382C84.7729 56.2382 82.6069 52.9467 82.6069 48.3387C82.6069 43.7944 85.1552 40.3331 90.2091 40.3331C95.2418 40.3331 97.4078 43.7944 97.4078 48.0627C97.4078 53.0529 94.9658 56.2382 89.9118 56.2382ZM90.0392 53.6263C92.4175 53.6263 94.0314 52.161 94.0314 48.2538C94.0314 44.5801 92.5662 43.0087 90.1666 43.0087C87.7246 43.0087 86.0046 44.6226 86.0046 48.275C86.0046 52.0973 87.5972 53.6263 90.0392 53.6263Z" fill="#1F3A65"/>
<path d="M106.874 55.9833H98.4438V54.327L99.7816 54.1784C100.079 54.1359 100.121 54.0722 100.121 53.7537V42.8601C100.121 42.5415 100.079 42.4566 99.7816 42.4354L98.4438 42.2867V40.6092H109.656V44.8986L107.32 44.7925L107.023 43.1786C106.98 42.9662 106.895 42.9025 106.662 42.9025H103.413V47.0646H108.297V49.4217H103.413V53.7112C103.413 54.051 103.434 54.0934 103.753 54.1359L106.874 54.3058V55.9833Z" fill="#1F3A65"/>
<path d="M117.907 55.9833H110.772V54.327L112.322 54.1784C112.619 54.1571 112.662 54.0722 112.662 53.7537V42.8813C112.662 42.5628 112.619 42.4778 112.322 42.4566L110.772 42.308V40.6092H117.907V42.308L116.271 42.4778C115.953 42.5203 115.932 42.5628 115.932 42.8813V53.7324C115.932 54.0722 115.953 54.1147 116.271 54.1571L117.907 54.327V55.9833Z" fill="#1F3A65"/>
<path d="M133.372 55.9833H129.889L123.115 44.8986V53.7324C123.115 54.0722 123.137 54.1147 123.455 54.1571L124.878 54.327V55.9833H118.975V54.327L120.312 54.1784C120.61 54.1359 120.652 54.0722 120.652 53.7537V42.8388C120.652 42.5203 120.61 42.4354 120.312 42.4141L118.975 42.2655V40.6092H124.241L130.909 51.7151V42.8813C130.909 42.5628 130.866 42.4778 130.569 42.4566L129.231 42.308V40.6092H135.135V42.308L133.712 42.4778C133.393 42.5203 133.372 42.5628 133.372 42.8813V55.9833Z" fill="#1F3A65"/>
<path d="M150.344 50.2711L149.474 50.3561C149.219 50.3773 149.134 50.441 149.134 50.6533V55.2189C147.52 55.9833 145.397 56.2382 143.634 56.2382C137.837 56.2382 135.841 52.8193 135.841 48.2538C135.841 43.7095 138.453 40.3331 143.804 40.3331C145.333 40.3331 147.308 40.7153 148.603 41.5647V45.5782L146.246 45.4083L145.928 43.4971C145.864 43.1998 145.779 43.1149 145.588 43.0724C145.057 42.9238 144.292 42.7964 143.634 42.7964C140.895 42.7964 139.26 44.8774 139.26 48.2113C139.26 51.7151 140.746 53.7961 143.783 53.7961C144.356 53.7961 145.057 53.7324 145.545 53.6475C145.779 53.605 145.885 53.5413 145.885 53.2653V50.4835H143.528L143.825 48.5723H150.344V50.2711Z" fill="#1F3A65"/>
</svg>
