<svg width="150" height="57" viewBox="0 0 150 57" fill="none" xmlns="http://www.w3.org/2000/svg">
<path d="M40.7152 21.959C40.4391 21.959 40.2152 21.7351 40.2152 21.459V19.0807C40.2152 18.8045 40.4391 18.5807 40.7152 18.5807H43.4555C43.7316 18.5807 43.9555 18.8045 43.9555 19.0807V21.459C43.9555 21.7351 43.7316 21.959 43.4555 21.959H40.7152Z" fill="#EF1E24"/>
<path d="M46.3859 18.5807C46.1098 18.5807 45.8859 18.8045 45.8859 19.0807V21.459C45.8859 21.7351 46.1098 21.959 46.3859 21.959H49.1262C49.4024 21.959 49.6262 21.7351 49.6262 21.459V19.0807C49.6262 18.8045 49.4024 18.5807 49.1262 18.5807H46.3859Z" fill="#EF1E24"/>
<path d="M46.3859 23.7688C46.1098 23.7688 45.8859 23.9926 45.8859 24.2688V26.5264C45.8859 26.8026 46.1098 27.0264 46.3859 27.0264H49.1262C49.4024 27.0264 49.6262 26.8026 49.6262 26.5264V24.2688C49.6262 23.9926 49.4024 23.7688 49.1262 23.7688H46.3859Z" fill="#EF1E24"/>
<path d="M40.7152 23.7688C40.4391 23.7688 40.2152 23.9926 40.2152 24.2688V26.5264C40.2152 26.8026 40.4391 27.0264 40.7152 27.0264H43.4555C43.7316 27.0264 43.9555 26.8026 43.9555 26.5264V24.2688C43.9555 23.9926 43.7316 23.7688 43.4555 23.7688H40.7152Z" fill="#EF1E24"/>
<path fill-rule="evenodd" clip-rule="evenodd" d="M15.9221 35.2309C15.5022 35.2309 15.2693 34.7446 15.5326 34.4174L43.0125 0.272186C43.1441 0.108707 43.3637 0.0447757 43.5625 0.112111L64.6508 7.25678C64.975 7.36662 65.3112 7.12553 65.3112 6.78322V3.51634C65.3112 3.2402 65.5351 3.01634 65.8112 3.01634H73.1363C73.4125 3.01634 73.6363 3.2402 73.6363 3.51634V9.90058C73.6363 10.2116 73.9172 10.4471 74.2235 10.3929L110.143 4.03334C110.324 4.00143 110.507 4.07054 110.621 4.21352L134.762 34.4187C135.024 34.7462 134.79 35.2309 134.371 35.2309H72.6545C72.5116 35.2309 72.3755 35.1698 72.2806 35.0629L45.0756 4.42771C44.869 4.19507 44.5024 4.20558 44.3094 4.44969L27.051 26.2869C26.9813 26.3752 26.9433 26.4844 26.9433 26.5969V34.7309C26.9433 35.007 26.7194 35.2309 26.4433 35.2309H15.9221ZM98.0995 25.4741C98.2684 25.464 98.4208 25.3692 98.5044 25.2221L108.494 7.65471C108.671 7.34329 109.108 7.31368 109.326 7.59841L128.523 32.7383C128.775 33.0673 128.54 33.5417 128.126 33.5417H94.6249C94.4754 33.5417 94.3337 33.4748 94.2388 33.3594L88.8593 26.8196C88.5997 26.504 88.8078 26.0271 89.2157 26.0029L98.0995 25.4741Z" fill="#EF1E24"/>
<path d="M105.368 22.097C105.368 21.8209 105.592 21.597 105.868 21.597H108.367C108.643 21.597 108.867 21.8209 108.867 22.097V28.8189C108.867 29.095 108.643 29.3189 108.367 29.3189H105.868C105.592 29.3189 105.368 29.095 105.368 28.8189V22.097Z" fill="#EF1E24"/>
<path d="M112.625 21.597C112.349 21.597 112.125 21.8209 112.125 22.097V28.8189C112.125 29.095 112.349 29.3189 112.625 29.3189H115.003C115.279 29.3189 115.503 29.095 115.503 28.8189V22.097C115.503 21.8209 115.279 21.597 115.003 21.597H112.625Z" fill="#EF1E24"/>
<path d="M18.878 55.9833H11.8916V54.327L13.6329 54.1784C13.9302 54.1359 13.9727 54.051 13.9727 53.7537V45.6843H13.8877L10.8511 52.9255H7.3898L4.39566 45.6631H4.28948V53.7324C4.28948 54.0722 4.31072 54.1147 4.62924 54.1571L6.45546 54.327V55.9833H0V54.327L1.33781 54.1784C1.6351 54.1359 1.67757 54.0722 1.67757 53.7537V42.8601C1.67757 42.5416 1.6351 42.4778 1.33781 42.4354L0 42.2867V40.6092H5.691L9.3859 50.2286H9.47084L13.3569 40.6092H18.878V42.2655L17.4552 42.4354C17.1367 42.4778 17.1155 42.5203 17.1155 42.8388V53.7537C17.1155 54.0297 17.1792 54.1147 17.4552 54.1571L18.878 54.327V55.9833Z" fill="#EF1E24"/>
<path d="M33.8044 55.9833H30.2157L29.0477 54.6243C27.9223 55.6861 26.542 56.2382 24.7583 56.2382C21.9128 56.2382 19.9379 54.6668 19.9379 51.8637C19.9379 49.8889 20.9572 48.3812 22.9957 47.5318C22.5923 46.8947 22.21 46.0878 22.21 45.0685C22.21 42.8813 23.9301 41.5647 26.3084 41.5647C27.8373 41.5647 29.3875 42.0531 30.0883 42.4991V45.833L27.8161 45.748L27.5613 44.3253C27.5188 44.1129 27.4551 44.0492 27.264 43.9855C27.0516 43.9218 26.7756 43.9006 26.4995 43.9006C25.6501 43.9006 25.2467 44.389 25.2467 45.0685C25.2467 45.7905 25.6077 46.3851 26.4146 47.3194L28.7929 50.1225C29.0477 49.3368 29.1964 48.4024 29.2813 47.7654H32.9338V49.4005L31.9569 49.5916C31.7021 49.6341 31.6384 49.6765 31.596 49.9526C31.4261 50.7595 31.1712 51.6089 30.8103 52.3522L32.1481 53.8811C32.2542 54.0085 32.3604 54.1147 32.5515 54.1359L33.8044 54.327V55.9833ZM27.3277 52.6919L24.5247 49.5067C23.6116 49.8889 23.017 50.6109 23.017 51.7151C23.017 52.7556 23.5691 53.69 25.0131 53.69C25.8412 53.69 26.6694 53.4139 27.3277 52.6919Z" fill="#EF1E24"/>
<path d="M48.558 55.9833H43.9287L42.0176 50.6533C41.7627 49.9314 41.4867 49.6978 40.7647 49.6978H39.7666V53.69C39.7666 54.0297 39.7879 54.0722 40.1064 54.1147L41.5929 54.2845V55.9833H34.8189V54.2845L36.1567 54.1359C36.454 54.1147 36.4964 54.0297 36.4964 53.7112V42.8601C36.4964 42.5416 36.454 42.4778 36.1567 42.4354L34.8189 42.2867V40.6092H42.06C45.8823 40.6092 47.0078 42.6477 47.0078 44.8562C47.0078 47.0434 45.8611 48.2113 44.2048 48.9333C44.8206 49.2306 45.0966 49.7402 45.4364 50.6321L46.6043 53.6687C46.7742 53.9873 46.9229 54.0297 47.2414 54.0722L48.558 54.2845V55.9833ZM39.7666 47.4893H40.7434C42.2724 47.4893 43.6314 47.1283 43.6314 45.0473C43.6314 43.4122 42.7183 42.9238 40.8284 42.9238H39.7666V47.4893Z" fill="#EF1E24"/>
<path d="M66.827 55.9833H62.1977L60.2866 50.6533C60.0318 49.9313 59.7557 49.6978 59.0337 49.6978H58.0357V53.69C58.0357 54.0297 58.0569 54.0722 58.3754 54.1147L59.8619 54.2845V55.9833H53.0879V54.2845L54.4257 54.1359C54.723 54.1147 54.7655 54.0297 54.7655 53.7112V42.8601C54.7655 42.5415 54.723 42.4778 54.4257 42.4354L53.0879 42.2867V40.6092H60.329C64.1514 40.6092 65.2768 42.6477 65.2768 44.8562C65.2768 47.0434 64.1301 48.2113 62.4738 48.9333C63.0896 49.2306 63.3657 49.7402 63.7054 50.6321L64.8734 53.6687C65.0432 53.9872 65.1919 54.0297 65.5104 54.0722L66.827 54.2845V55.9833ZM58.0357 47.4893H59.0125C60.5414 47.4893 61.9004 47.1283 61.9004 45.0473C61.9004 43.4122 60.9873 42.9238 59.0974 42.9238H58.0357V47.4893Z" fill="white"/>
<path d="M73.8793 56.2382C68.7405 56.2382 66.5745 52.9467 66.5745 48.3387C66.5745 43.7944 69.1227 40.3331 74.1766 40.3331C79.2093 40.3331 81.3753 43.7944 81.3753 48.0627C81.3753 53.0529 78.9333 56.2382 73.8793 56.2382ZM74.0068 53.6263C76.3851 53.6263 77.9989 52.161 77.9989 48.2538C77.9989 44.5801 76.5337 43.0087 74.1342 43.0087C71.6921 43.0087 69.9721 44.6226 69.9721 48.275C69.9721 52.0973 71.5647 53.6263 74.0068 53.6263Z" fill="white"/>
<path d="M89.5676 56.2382C84.4287 56.2382 82.2627 52.9467 82.2627 48.3387C82.2627 43.7944 84.8109 40.3331 89.8649 40.3331C94.8976 40.3331 97.0636 43.7944 97.0636 48.0627C97.0636 53.0529 94.6215 56.2382 89.5676 56.2382ZM89.695 53.6263C92.0733 53.6263 93.6872 52.161 93.6872 48.2538C93.6872 44.5801 92.222 43.0087 89.8224 43.0087C87.3804 43.0087 85.6603 44.6226 85.6603 48.275C85.6603 52.0973 87.2529 53.6263 89.695 53.6263Z" fill="white"/>
<path d="M106.53 55.9833H98.0996V54.327L99.4374 54.1784C99.7347 54.1359 99.7772 54.0722 99.7772 53.7537V42.8601C99.7772 42.5415 99.7347 42.4566 99.4374 42.4354L98.0996 42.2867V40.6092H109.312V44.8986L106.976 44.7925L106.679 43.1786C106.636 42.9662 106.551 42.9025 106.318 42.9025H103.069V47.0646H107.953V49.4217H103.069V53.7112C103.069 54.051 103.09 54.0934 103.408 54.1359L106.53 54.3058V55.9833Z" fill="white"/>
<path d="M117.562 55.9833H110.427V54.327L111.978 54.1784C112.275 54.1571 112.317 54.0722 112.317 53.7537V42.8813C112.317 42.5628 112.275 42.4778 111.978 42.4566L110.427 42.308V40.6092H117.562V42.308L115.927 42.4778C115.609 42.5203 115.587 42.5628 115.587 42.8813V53.7324C115.587 54.0722 115.609 54.1147 115.927 54.1571L117.562 54.327V55.9833Z" fill="white"/>
<path d="M133.028 55.9833H129.545L122.771 44.8986V53.7324C122.771 54.0722 122.792 54.1147 123.111 54.1571L124.534 54.327V55.9833H118.63V54.327L119.968 54.1784C120.266 54.1359 120.308 54.0722 120.308 53.7537V42.8388C120.308 42.5203 120.266 42.4354 119.968 42.4141L118.63 42.2655V40.6092H123.897L130.565 51.7151V42.8813C130.565 42.5628 130.522 42.4778 130.225 42.4566L128.887 42.308V40.6092H134.79V42.308L133.368 42.4778C133.049 42.5203 133.028 42.5628 133.028 42.8813V55.9833Z" fill="white"/>
<path d="M150 50.2711L149.13 50.3561C148.875 50.3773 148.79 50.441 148.79 50.6533V55.2189C147.176 55.9833 145.052 56.2382 143.29 56.2382C137.493 56.2382 135.497 52.8193 135.497 48.2538C135.497 43.7095 138.109 40.3331 143.46 40.3331C144.989 40.3331 146.964 40.7153 148.259 41.5647V45.5782L145.902 45.4083L145.583 43.4971C145.52 43.1998 145.435 43.1149 145.244 43.0724C144.713 42.9238 143.948 42.7964 143.29 42.7964C140.551 42.7964 138.916 44.8774 138.916 48.2113C138.916 51.7151 140.402 53.7961 143.439 53.7961C144.012 53.7961 144.713 53.7324 145.201 53.6475C145.435 53.605 145.541 53.5413 145.541 53.2653V50.4835H143.184L143.481 48.5723H150V50.2711Z" fill="white"/>
</svg>
