<?xml version="1.0" encoding="UTF-8" standalone="no"?>
<!-- Created with Inkscape (http://www.inkscape.org/) -->
<svg version="1.1" id="svg1" width="682.38208" height="682.89471" viewBox="0 0 682.38208 682.89472" sodipodi:docname="1212.png" inkscape:version="0.0" inkscape:export-filename="1212.svg" inkscape:export-xdpi="96" inkscape:export-ydpi="96" xmlns:inkscape="http://www.inkscape.org/namespaces/inkscape" xmlns:sodipodi="http://sodipodi.sourceforge.net/DTD/sodipodi-0.dtd" xmlns="http://www.w3.org/2000/svg" xmlns:svg="http://www.w3.org/2000/svg">
  <defs id="defs1"/>
  <sodipodi:namedview id="namedview1" pagecolor="#ffffff" bordercolor="#000000" borderopacity="0.25" inkscape:showpageshadow="2" inkscape:pageopacity="0.0" inkscape:pagecheckerboard="0" inkscape:deskcolor="#d1d1d1" inkscape:zoom="0.90234372" inkscape:cx="275.39395" inkscape:cy="398.96105" inkscape:window-width="1920" inkscape:window-height="1027" inkscape:window-x="1080" inkscape:window-y="314" inkscape:window-maximized="1" inkscape:current-layer="g1"/>
  <g inkscape:groupmode="layer" inkscape:label="Image" id="g1" transform="translate(-863.46309,57.855727)">
    <path style="fill:#f9f9f9" d="m 890.41733,622.57089 c -13.38691,-4.62618 -22.90078,-15.21344 -25.79232,-28.7023 -1.04499,-4.87482 -1.34767,-90.21595 -1.05749,-298.16296 l 0.40654,-291.3333357 2.80754,-6.067741 c 4.10456,-8.8709063 10.36777,-15.3308163 18.95032,-19.5454793 l 7.57547,-3.720114 53.66667,-0.390154 53.66664,-0.390154 v -10.547109 c 0,-12.075947 1.6472,-16.743578 6.8601,-19.439245 5.4868,-2.837366 207.4597,-2.837366 212.9466,0 5.2128,2.695667 6.86,7.363298 6.86,19.439245 v 10.547109 l 53.6667,0.390154 53.6666,0.390154 7.5755,3.720114 c 8.5826,4.214663 14.8458,10.674573 18.9503,19.5454793 2.6427,5.711322 2.8467,8.858929 3.4742,53.5854587 l 0.6667,47.51772 8,-2.49808 c 4.4,-1.37395 8.8955,-2.50692 9.99,-2.51772 2.6918,-0.0266 151.763,46.510568 156.1555,48.748688 6.7004,3.41406 6.7389,3.94567 6.1688,85.38991 -0.5079,72.57418 -0.6592,76.41623 -3.51,89.1751 -16.9661,75.931 -71.38,133.38591 -144.0575,152.10834 -12.4544,3.20839 -14.3818,3.38144 -21.6767,1.94626 -4.4038,-0.86639 -8.8461,-1.89729 -9.8718,-2.29091 -1.5651,-0.60057 -1.865,4.31369 -1.865,30.56028 v 31.27594 l -3.8641,5.20005 c -4.5666,6.14545 -81.9708,83.18117 -86.7659,86.35282 -2.9471,1.94933 -10.7569,2.18057 -73.6456,2.18057 h -70.349 l -4.324,-3.86356 c -3.5784,-3.19725 -4.3241,-4.83038 -4.3241,-9.46978 0,-4.6394 0.7457,-6.27252 4.3241,-9.46978 l 4.324,-3.86355 h 61.8807 61.8807 l 0.4316,-27 c 0.3852,-24.09362 0.7338,-27.65316 3.2392,-33.06774 4.1045,-8.87091 10.3677,-15.33082 18.9503,-19.54548 7.417,-3.64229 8.1404,-3.72915 34.5755,-4.15173 l 27,-0.43161 v -27.90172 c 0,-21.91584 -0.3696,-27.90172 -1.7227,-27.90172 -3.1495,0 -25.4379,-13.45762 -37.9073,-22.88828 -38.2134,-28.9009 -65.9018,-74.12096 -74.3611,-121.44506 l -2.3238,-13 h -54.5521 c -58.0342,0 -61.7636,-0.37085 -65.0257,-6.46614 -2.7822,-5.19856 -1.7415,-12.10487 2.4568,-16.30309 l 3.8974,-3.89744 h 56.1026 56.1025 v -59.33334 -59.33333 h -54.0428 c -57.4895,0 -61.2581,-0.37771 -64.5165,-6.46613 -2.7822,-5.19857 -1.7415,-12.10487 2.4568,-16.3031 l 3.8974,-3.89744 81.1026,-0.0145 81.1025,-0.0145 33.3334,-10.40937 33.3333,-10.40937 0.3535,-47.909458 c 0.2505,-33.948304 -0.096,-48.996272 -1.1878,-51.6390013 -3.0699,-7.4283474 -4.4335,-7.6037904 -59.0995,-7.6037904 h -50.0662 l -0.01,9.0000017 c 0,4.95 -0.6491,11.310772 -1.4333,14.135048 -1.8703,6.735756 -10.9991,15.785883 -18.0473,17.891836 -7.8794,2.354326 -179.8112,2.354326 -187.6906,0 -7.0482,-2.105953 -16.177,-11.15608 -18.0473,-17.891836 -0.7842,-2.824276 -1.4292,-9.185048 -1.4333,-14.135048 l -0.01,-9.0000017 h -50.06622 c -54.30611,0 -55.76544,0.180441 -59.00754,7.2960774 -1.21929,2.6760493 -1.59291,71.0484143 -1.59291,291.4995423 0,313.33764 -0.48995,293.39727 7.29607,296.94482 2.53898,1.15683 19.3399,1.59291 61.37059,1.59291 62.17761,0 63.27761,0.11302 66.76671,6.86003 2.405,4.65089 2.405,8.29572 0,12.9466 -3.5002,6.7685 -4.4526,6.86328 -68.49611,6.81651 -53.68869,-0.0392 -60.28772,-0.27983 -66.49399,-2.42456 z m 414.64727,-81.25008 c -21.701,-0.64456 -24.4239,2.02746 -24.4239,23.96742 v 13.71502 l 18.6901,-18.6488 18.6901,-18.64881 z m 90.9671,-98.38451 c 52.7052,-15.16413 97.1626,-57.86391 114.4209,-109.89733 7.8619,-23.70321 7.9204,-24.38937 8.4945,-99.66667 0.2923,-38.31667 0.22,-69.66667 -0.1606,-69.66667 -0.3806,0 -30.4558,-9.3 -66.8338,-20.66667 -36.378,-11.36666 -67.1551,-20.68019 -68.3936,-20.69672 -1.2384,-0.0165 -32.4017,9.37945 -69.2517,20.87996 l -67,20.91002 0.01,63.45337 c 0.01,66.98153 0.7107,77.44102 6.6092,98.42367 12.8447,45.69139 47.1797,86.04717 91.1675,107.15398 10.0522,4.82341 33.1542,12.89141 37.6064,13.13345 0.7651,0.0416 6.7651,-1.47059 13.3333,-3.36039 z m -24.7243,-27.80378 c -40.6838,-14.27669 -73.6328,-46.50958 -88.1196,-86.20447 -7.9788,-21.86253 -8.1918,-23.87927 -8.8317,-83.63121 -0.6351,-59.29858 -0.6432,-59.21689 6.2541,-62.90819 3.7775,-2.02166 100.1252,-32.01635 102.8415,-32.01635 2.8066,0 98.4344,29.8122 102.3504,31.90795 7.1206,3.81085 7.0886,3.50103 6.5242,63.01659 -0.5156,54.36856 -0.5669,55.24094 -3.9999,67.96818 -13.1712,48.82993 -47.3993,86.25771 -93.0981,101.80085 -11.6436,3.96024 -12.8161,3.96351 -23.9209,0.0666 z m 24,-28.53619 c 12.271,-5.24418 22.2511,-11.95473 33.3476,-22.42261 16.1664,-15.25056 26.1442,-31.44448 32.9059,-53.40597 l 3.6111,-11.72878 0.068,-47.95519 0.068,-47.95518 -41.0117,-12.86654 -41.0117,-12.86655 -40.9883,12.89543 -40.9883,12.89542 0.068,47.92631 0.068,47.9263 3.6111,11.72878 c 10.8161,35.13034 34.7719,62.21689 67.4717,76.28955 9.5324,4.10235 12.2318,4.04773 22.7818,-0.46097 z m -48.5729,-81.52016 c -18.7232,-18.59251 -18.7604,-18.64167 -18.7604,-24.78211 0,-7.99484 4.7148,-12.58843 12.9206,-12.58843 5.062,0 6.3046,0.84929 17.9461,12.2657 l 12.5075,12.26569 24.3948,-24.26569 c 23.7415,-23.61593 24.5423,-24.2657 29.9052,-24.2657 8.2763,0 12.9924,4.56459 12.9924,12.57492 v 6.13913 l -30.7254,30.64298 c -39.4273,39.32156 -34.6294,38.37944 -61.1808,12.01351 z M 1200.6407,-6.9610397 V -30.961041 h -86.6666 -86.6667 V -6.9610397 17.038962 h 86.6667 86.6666 z M 1065.6921,621.17542 c -3.5784,-3.19725 -4.3241,-4.83038 -4.3241,-9.46978 0,-13.32583 17.9906,-18.17032 24.0394,-6.4733 3.5389,6.84354 1.3831,14.62647 -4.96,17.90663 -5.5793,2.88514 -9.9849,2.29887 -14.7553,-1.96355 z M 985.97406,504.16637 c -1.1,-0.41857 -8.74891,-7.4326 -16.99758,-15.58673 -16.54307,-16.35344 -18.50665,-20.12086 -14.24618,-27.33325 3.71277,-6.28523 10.82085,-8.5388 16.99808,-5.38913 1.60179,0.81673 6.36865,4.85418 10.59302,8.97212 l 7.68067,7.48717 23.65263,-23.49645 c 13.009,-12.92305 25.0659,-24.21542 26.7931,-25.09417 7.9019,-4.0202 18.1323,2.79641 18.1323,12.08166 0,5.11933 -0.9811,6.26544 -31.303,36.56838 -31.51663,31.49687 -35.00943,34.18523 -41.30304,31.7904 z M 1108.1003,503.036 c -5.4794,-2.90504 -7.3684,-5.90169 -7.4172,-11.76626 -0.032,-3.89573 0.8794,-6.02436 3.8551,-9 l 3.8974,-3.89743 h 50.8718 50.8718 l 3.8974,3.89743 c 5.3204,5.32036 5.3234,11.79736 0.01,17.7482 l -3.8892,4.35437 -49.1108,0.35872 c -42.1367,0.30779 -49.6609,0.0671 -52.9845,-1.69503 z m -1.0927,-58.7421 c -7.6115,-4.13061 -8.829,-14.33131 -2.4694,-20.69083 l 3.8974,-3.89743 h 64.8718 64.8718 l 3.8974,3.89743 c 6.471,6.47093 5.1208,16.68918 -2.7425,20.75543 -5.753,2.97499 -126.8344,2.91588 -132.3265,-0.0646 z M 985.97406,358.83303 c -4.38472,-1.66847 -31.91662,-30.37912 -32.74393,-34.14582 -1.81005,-8.24113 4.88346,-15.64824 14.14069,-15.64824 3.36743,0 6.02314,1.76409 13.45081,8.9349 l 9.25496,8.93491 23.61541,-23.45923 c 12.9885,-12.90258 25.0286,-24.17821 26.7558,-25.05696 7.9019,-4.0202 18.1323,2.79641 18.1323,12.08167 0,5.11932 -0.9811,6.26543 -31.303,36.56837 -31.51663,31.49687 -35.00943,34.18523 -41.30304,31.7904 z m 124.43584,-0.0549 c -1.5936,-0.31041 -4.4436,-2.11052 -6.3333,-4.00024 -4.9704,-4.97037 -4.7728,-12.60706 0.4616,-17.84145 l 3.8974,-3.89743 h 36.1495 c 40.2434,0 41.2624,0.20298 44.0943,8.78381 2.1428,6.49288 -1.5623,13.93237 -8.0387,16.14093 -4.4573,1.52002 -63.1162,2.20021 -70.2308,0.81438 z M 985.97406,213.49969 c -4.38472,-1.66847 -31.91662,-30.37912 -32.74393,-34.14582 -1.81005,-8.24112 4.88346,-15.64824 14.14069,-15.64824 3.36743,0 6.02314,1.7641 13.45081,8.93491 l 9.25496,8.9349 23.61541,-23.45923 c 12.9885,-12.90258 25.0286,-24.17821 26.7558,-25.05696 7.9019,-4.02019 18.1323,2.79641 18.1323,12.08167 0,5.11933 -0.9811,6.26543 -31.303,36.56837 -31.51663,31.49687 -35.00943,34.18524 -41.30304,31.7904 z m 124.43584,-0.0549 c -1.5936,-0.31042 -4.4436,-2.11053 -6.3333,-4.00025 -4.9704,-4.97037 -4.7728,-12.60706 0.4616,-17.84144 l 3.8974,-3.89744 h 35.2541 35.2541 l 3.5151,3.51515 c 2.6662,2.6662 3.5152,4.84867 3.5152,9.03666 0,7.05598 -2.7935,10.98764 -9.0393,12.72227 -4.7025,1.306 -60.2153,1.69406 -66.5249,0.46505 z" id="path1"/>
  </g>
</svg>