<?xml version="1.0" encoding="UTF-8" standalone="no"?>
<!-- Created with Inkscape (http://www.inkscape.org/) -->
<svg version="1.1" id="svg1" width="512" height="512" viewBox="0 0 512 512" sodipodi:docname="24-hours(1).png" xmlns:inkscape="http://www.inkscape.org/namespaces/inkscape" xmlns:sodipodi="http://sodipodi.sourceforge.net/DTD/sodipodi-0.dtd" xmlns="http://www.w3.org/2000/svg" xmlns:svg="http://www.w3.org/2000/svg">
  <defs id="defs1"/>
  <sodipodi:namedview id="namedview1" pagecolor="#ffffff" bordercolor="#000000" borderopacity="0.25" inkscape:showpageshadow="2" inkscape:pageopacity="0.0" inkscape:pagecheckerboard="0" inkscape:deskcolor="#d1d1d1"/>
  <g inkscape:groupmode="layer" inkscape:label="Image" id="g1">
    <path style="fill:#f9f9f9" d="m 256,511.33939 c -30.86412,-3.00298 -50.76609,-7.49603 -74.75969,-16.8777 C 103.01115,463.87352 44.590454,396.97201 24.964845,315.5 19.67113,293.52414 18.513716,282.84192 18.518051,256 18.522513,228.36866 19.809958,217.13756 25.65477,193.74246 41.121403,131.83395 78.855542,78.760112 133.38051,42.223997 156.00399,27.064444 189.35687,12.773991 216.5,6.6104292 237.5599,1.8282246 248.97055,0.60642069 273,0.56064743 295.90962,0.51700732 304.57777,1.2946623 324,5.1360631 371.87565,14.605088 416.98092,38.395235 452.09755,72.699334 l 9.59756,9.375483 1.25265,-16.787408 c 0.68896,-9.233075 1.41409,-16.956438 1.6114,-17.163029 0.43051,-0.450754 28.68277,1.784215 29.20923,2.310673 0.50582,0.505822 -5.81048,85.940367 -6.39706,86.526957 -0.5346,0.53459 -86.20468,-5.45232 -86.79,-6.06518 -0.60343,-0.63181 1.56995,-28.32753 2.27881,-29.0394 0.35192,-0.35341 8.69854,-0.0121 18.54805,0.75848 9.8495,0.77058 18.11861,1.19063 18.37579,0.93344 0.25719,-0.25718 -3.3015,-4.138614 -7.90818,-8.625399 C 397.12529,61.077927 354.42186,39.858181 305.96435,32.357334 290.18743,29.91519 257.90254,29.908471 242,32.344022 203.00112,38.316887 168.45822,52.7946 137.08047,76.318175 124.63408,85.649104 103.32116,106.93474 94.25405,119.08977 41.289965,190.09142 33.138222,280.1864 72.626041,358.12763 105.86594,423.73667 168.03564,468.34082 242,479.6463 c 14.00534,2.14073 47.11027,2.43203 60.5,0.53237 62.10939,-8.81174 117.01315,-41.14625 152.69821,-89.92867 3.31925,-4.5375 6.22079,-8.25 6.44787,-8.25 0.90957,0 24.35392,16.08593 24.35392,16.71002 0,0.36879 -3.85996,5.75853 -8.57769,11.9772 -33.00968,43.51165 -80.69485,76.23012 -132.98052,91.24258 -13.71999,3.93934 -33.48549,7.61039 -48.44179,8.99711 -10.6615,0.98851 -31.83548,1.20686 -40,0.41248 z M 109.01736,300.25 c 0.0344,-17.31897 4.93981,-30.54363 14.41623,-38.86498 2.92298,-2.5667 10.35474,-7.02429 17.56641,-10.53639 15.19156,-7.39832 20.45465,-11.06193 23.59875,-16.42693 2.94222,-5.02051 3.26516,-13.15062 0.69519,-17.50125 -5.18726,-8.78132 -20.80749,-7.56232 -34.05815,2.65789 l -5.73579,4.424 -8.2046,-8.75117 -8.2046,-8.75117 3.6313,-3.72312 c 4.79396,-4.91517 20.01185,-12.4719 28.7779,-14.29018 24.7344,-5.13051 45.45806,2.18663 53.10814,18.7515 2.63573,5.70719 2.89146,7.23607 2.88737,17.2618 -0.004,9.64199 -0.30703,11.61728 -2.45512,16 -3.7629,7.67737 -11.23376,14.19002 -24.5417,21.39397 -6.49641,3.51669 -13.61002,8.01669 -15.80804,10 C 151.08342,275.14885 148,280.25232 148,282.96788 148,283.64985 156.48135,284 173,284 h 25 V 296.5 309 H 153.5 109 Z m 149.64931,8.08333 C 258.3,307.96667 258,302.11667 258,295.33333 V 283 h -23.52988 -23.52987 l 0.27987,-12.45127 0.27988,-12.45127 27.5,-34.99787 27.5,-34.99786 9.25,-0.0509 L 285,188 v 35.5 35.5 h 7.5 7.5 v 11.95619 11.95619 l -7.25,0.29381 -7.25,0.29381 -0.27988,12.75 -0.27987,12.75 h -12.80346 c -7.0419,0 -13.10346,-0.3 -13.47012,-0.66667 z M 261,244.28571 c 0,-12.49033 -0.2066,-14.49297 -1.36696,-13.25 -0.75182,0.80536 -5.54421,6.86429 -10.64976,13.46429 -5.10554,6.6 -9.72051,12.5625 -10.25548,13.25 -0.76577,0.98409 1.4997,1.25 10.64976,1.25 H 261 Z M 316,247 v -62 h 13.5 13.5 v 24.47766 24.47765 l 4.12742,-4.47772 c 2.35785,-2.55797 6.95774,-5.87109 10.72897,-7.72766 6.0487,-2.97776 7.3989,-3.2497 16.12258,-3.24717 10.49654,0.003 15.00762,1.60448 20.15687,7.15566 7.04303,7.59278 7.86416,12.9587 7.86416,51.3908 V 309 H 388.5 375 l -0.006,-26.75 c -0.006,-27.96988 -0.52991,-32.43588 -4.32397,-36.84673 -3.14862,-3.6605 -9.89112,-4.35166 -15.33897,-1.57238 -4.40517,2.24735 -9.93366,7.99256 -11.39847,11.8453 C 343.41986,257.0259 343,269.5759 343,283.5651 V 309 H 329.5 316 Z" id="path1"/>
  </g>
</svg>