<?xml version="1.0" encoding="UTF-8" standalone="no"?>
<!-- Created with Inkscape (http://www.inkscape.org/) -->
<svg version="1.1" id="svg1" width="512" height="512" viewBox="0 0 512 512" sodipodi:docname="12123.png" xmlns:inkscape="http://www.inkscape.org/namespaces/inkscape" xmlns:sodipodi="http://sodipodi.sourceforge.net/DTD/sodipodi-0.dtd" xmlns="http://www.w3.org/2000/svg" xmlns:svg="http://www.w3.org/2000/svg">
  <defs id="defs1"/>
  <sodipodi:namedview id="namedview1" pagecolor="#ffffff" bordercolor="#000000" borderopacity="0.25" inkscape:showpageshadow="2" inkscape:pageopacity="0.0" inkscape:pagecheckerboard="0" inkscape:deskcolor="#d1d1d1"/>
  <g inkscape:groupmode="layer" inkscape:label="Image" id="g1">
    <path style="fill:#f9f9f9" d="M 21.396301,510.58743 C 11.757401,507.55736 3.4110822,498.70832 1.035271,489 0.24676249,485.77791 0.01439572,424.86443 0.2170173,274.5 L 0.5,64.5 3.163602,59.5 C 6.5875206,53.072766 12.192806,47.69984 18.5,44.79935 23.428248,42.532997 24.106303,42.495562 65.75,42.190773 L 108,41.881546 v -3.986227 c 0,-2.898958 0.66949,-4.655722 2.45455,-6.440774 L 112.90909,29 h 22.95625 22.95625 l 2.28408,-4.75 c 2.97324,-6.183178 12.13311,-15.3238323 18.68119,-18.6419943 14.37121,-7.282445 29.04493,-7.2875801 43.39631,-0.015186 6.59835,3.3436372 14.88424,11.6332953 18.23252,18.2408113 L 244.03369,29 h 23.02861 23.02861 l 2.45454,2.454545 C 294.33051,33.239597 295,34.996361 295,37.895319 v 3.986227 l 42.25,0.309227 c 40.84878,0.298971 42.40507,0.380893 46.92567,2.470117 6.60814,3.053992 13.19719,9.498966 15.96106,15.61206 L 402.5,65.5 l 0.5,96 0.5,96 4.766,7.47996 c 9.27286,14.55324 14.6052,32.19779 15.44788,51.11661 0.90561,20.33178 -2.66017,37.90436 -11.16426,55.01874 l -4.36085,8.77618 10.95463,10.79494 10.95463,10.79494 6.33598,-0.32583 c 4.33566,-0.22297 7.2405,0.16077 9.20099,1.21548 4.75853,2.56001 61.65101,58.30271 64.115,62.81925 2.62803,4.81723 2.85681,9.42167 0.72199,14.531 -1.67405,4.00659 -24.29507,27.56649 -28.67233,29.86239 -3.16362,1.65933 -10.51325,1.85593 -14.38281,0.38473 -2.71156,-1.03094 -9.07131,-6.97489 -45.07886,-42.13163 l -19.16202,-18.70924 -0.36579,20.18624 c -0.33879,18.6966 -0.53742,20.53575 -2.69163,24.92246 -3.06125,6.23374 -8.6288,11.85481 -14.70317,14.84452 L 380.5,511.5 203,511.68873 C 60.433709,511.84032 24.692353,511.62358 21.396301,510.58743 Z M 378.92892,494.24845 c 1.8859,-0.96165 4.3609,-3.01822 5.5,-4.57017 1.98491,-2.70433 2.083,-4.24416 2.35766,-37.01134 l 0.28657,-34.18961 -3.81597,-3.7262 -3.81598,-3.7262 -3.7206,2.64725 -3.7206,2.64724 v 29.88575 29.88574 l -2.45455,2.45454 L 367.09091,481 H 201.5 35.909091 L 33.454545,478.54545 31,476.09091 V 277.46853 78.846154 L 33.923077,75.923077 36.846154,73 H 72.423077 108 V 65.5 58 H 68.21189 c -39.29496,0 -39.842496,0.02789 -44.176008,2.25 -2.73252,1.401165 -5.078646,3.569425 -6.218857,5.74739 -1.760014,3.361873 -1.821003,11.583292 -1.573992,212.17674 L 16.5,486.85347 l 2.071085,2.82327 c 1.139097,1.55279 3.614097,3.61006 5.5,4.57171 3.22557,1.64475 13.747624,1.74844 177.428915,1.74844 163.68129,0 174.20334,-0.10369 177.42892,-1.74844 z m 107.0142,-10.37901 10.44313,-11.12964 -28.44313,-27.8209 C 452.29941,429.61741 438.825,417.07616 438,417.04946 c -1.23416,-0.0399 -22,20.9096 -22,22.19462 0,1.02861 57.19634,55.75586 58.27094,55.75546 0.67598,-2.5e-4 5.92847,-5.0088 11.67218,-11.1301 z M 356,445 c 0,-11 -0.21553,-20 -0.47895,-20 -0.26342,0 -3.79539,1.1133 -7.84883,2.47399 -25.60011,8.59367 -56.09957,6.9198 -80.26646,-4.40518 L 258.72315,419 h -27.25079 c -24.48351,0 -27.46483,-0.17771 -29.35856,-1.75 -3.41422,-2.83469 -3.74912,-7.39938 -0.79509,-10.83685 l 2.50346,-2.91315 16.10255,-0.319 16.10255,-0.319 -6.96884,-8.14349 c -3.83286,-4.47892 -8.4515,-10.73449 -10.26364,-13.90126 l -3.29479,-5.75777 -5.32692,-0.0297 c -4.53319,-0.0253 -5.76248,-0.46529 -8.25,-2.95282 -3.32314,-3.32314 -3.56574,-4.93347 -1.38002,-9.16019 1.01803,-1.96865 2.56783,-3.18891 4.55482,-3.58631 2.25087,-0.45017 2.85392,-1.01011 2.38703,-2.21638 -2.57453,-6.6516 -4.68234,-19.31692 -5.17812,-31.11404 -0.35195,-8.37478 -1.08735,-14.52517 -1.93707,-16.20034 -1.96364,-3.87123 -1.7274,-5.31681 1.47328,-9.01486 1.56366,-1.80664 3.39806,-5.53318 4.07645,-8.28119 0.99464,-4.02912 5.08469,-15.25465 7.69546,-21.12099 0.31755,-0.71353 -1.39921,-1.29961 -4.74997,-1.62158 -6.64837,-0.63882 -10.39866,-4.278 -9.4543,-9.17419 C 200.47293,255.07924 202.94723,254 214.51184,254 h 10.29027 l 5.22263,-6.02856 c 11.07533,-12.78442 29.33262,-24.95637 46.35408,-30.9038 22.6426,-7.9115 49.4477,-8.13624 71.54633,-0.59987 4.08384,1.39273 7.57134,2.53223 7.75,2.53223 C 355.85382,219 356,189.75 356,154 V 89 H 325.5 295 l -0.0318,4.25 c -0.0343,4.579127 -1.21314,6.75486 -4.65246,8.58666 -3.13021,1.66716 -174.50127,1.66716 -177.63148,0 -3.43932,-1.8318 -4.61819,-4.007533 -4.65246,-8.58666 L 108,89 H 77.5 47 V 277 465 H 201.5 356 Z M 96,426.4057 c -4.212148,-1.82449 -8.581852,-5.82143 -10.829528,-9.9057 -1.349378,-2.45197 -1.716111,-6.83623 -2.007542,-24 -0.411668,-24.24511 0.402302,-29.7963 5.16429,-35.2199 5.865314,-6.68023 8.398749,-7.23411 33.17278,-7.25256 12.27736,-0.009 23.66182,0.44512 25.76029,1.02788 3.67902,1.0217 10.16264,6.49787 12.32888,10.41316 1.0172,1.83852 1.54576,1.56565 8,-4.12998 8.0545,-7.1078 10.21636,-8.00765 14.23967,-5.92711 3.24402,1.67755 4.17116,3.36344 4.17116,7.58474 0,2.3392 -2.04691,4.70651 -11.75,13.58918 -6.4625,5.91609 -11.975,10.94033 -12.25,11.16497 -0.275,0.22464 -0.725,7.53243 -1,16.23953 l -0.5,15.83109 -3.05797,3.8395 c -1.68188,2.11173 -5.03973,4.852 -7.46189,6.0895 -4.19794,2.14476 -5.48147,2.24817 -27.44203,2.21086 C 104.22323,427.92974 98.782437,427.6109 96,426.4057 Z m 49.02475,-16.9708 C 145.56114,408.0241 146,405.04489 146,402.81444 v -4.05536 l -4.4183,3.62046 c -7.55743,6.19274 -9.22084,5.61868 -22.38702,-7.72599 -11.25305,-11.40562 -12.39514,-13.36162 -10.5735,-18.10875 0.7043,-1.83537 5.4402,-4.5448 7.944,-4.5448 0.91547,0 5.2001,3.44066 9.52139,7.64591 8.8027,8.56631 7.67276,8.49768 15.66343,0.95134 4.68648,-4.42587 5.53386,-8.31927 2.6933,-12.37474 C 142.92127,366.04951 142.43282,366 122.51472,366 c -17.18654,0 -20.61757,0.24571 -21.94329,1.57143 C 99.250337,368.89252 99,372.2484 99,388.63717 c 0,11.52558 0.423154,20.28498 1.03518,21.42857 0.97416,1.82023 2.30211,1.93426 22.52475,1.93426 H 144.0495 Z M 95.491423,321.16901 C 89.696438,318.48727 85.391668,313.11453 83.988978,306.81292 83.212649,303.32525 82.928861,294.28546 83.16293,280.5 c 0.3872,-22.80409 0.706255,-24.25927 6.497794,-29.63584 6.086163,-5.65008 7.28878,-5.866 32.539616,-5.8422 20.44036,0.0193 23.79561,0.24724 27.34103,1.8577 3.75687,1.70651 7.43323,5.25901 10.05475,9.71597 1.00187,1.70333 1.68289,1.32589 7.92054,-4.38978 3.75344,-3.43935 7.83951,-6.50812 9.08016,-6.81951 3.1715,-0.79599 7.68709,1.63615 8.77357,4.72555 1.69188,4.81085 -0.0391,7.40173 -12.36454,18.50682 L 161,279.43585 l -0.0164,14.53207 c -0.0149,13.19407 -0.22288,14.89654 -2.25849,18.49049 -1.23311,2.17712 -4.18822,5.32712 -6.56689,7 l -4.32485,3.04159 -24.16666,0.26203 c -21.76901,0.23603 -24.564363,0.078 -28.175237,-1.59302 z m 49.047017,-16.58733 c 0.98946,-1.51011 1.46756,-4.00323 1.27305,-6.63853 l -0.31149,-4.22022 -4.34461,3.63853 c -7.21627,6.04349 -8.66093,5.53725 -21.85752,-7.65933 C 109.53918,279.94344 108,277.96182 108,275.15667 108,271.37364 111.76431,267 115.02029,267 c 3.33699,0 6.01481,1.7701 12.97971,8.57987 l 6.5,6.35523 5.75,-5.05039 c 6.06676,-5.32861 6.91417,-7.69252 4.77475,-13.31961 L 144.0495,261 h -21.48957 c -20.22264,0 -21.55059,0.11403 -22.52475,1.93426 C 99.423154,264.07785 99,272.83725 99,284.36283 c 0,16.38877 0.250337,19.74465 1.57143,21.06574 1.32589,1.32589 4.75981,1.57143 21.97695,1.57143 h 20.40551 z M 97.01027,216.6845 c -1.919351,-0.61123 -5.36186,-2.98346 -7.65002,-5.27162 -5.886389,-5.88639 -6.614983,-10.11698 -6.199077,-35.995 L 83.5,154.33575 l 3,-4.84023 c 1.989946,-3.21061 4.513572,-5.63963 7.495516,-7.21454 4.436786,-2.34328 4.824263,-2.37042 29.659384,-2.07764 l 25.16388,0.29666 3.84061,3.09283 c 2.11233,1.70105 4.82992,4.54568 6.03907,6.3214 l 2.19847,3.22859 6.48894,-6.03665 c 3.56893,-3.32016 7.72343,-6.34648 9.23225,-6.72517 5.45057,-1.36801 10.48784,4.07635 9.0547,9.78646 -0.3539,1.41004 -5.71582,7.03547 -12.64366,13.26503 L 161,174.24919 160.9836,188.8746 c -0.015,13.30381 -0.21966,14.98418 -2.26523,18.59583 -2.53351,4.47315 -7.23566,8.02328 -12.60069,9.51354 -4.89866,1.36071 -44.65546,1.11826 -49.10736,-0.29947 z M 144.4433,199.77749 C 145.93331,197.6502 146.67806,189 145.3712,189 c -0.34584,0 -2.37214,1.575 -4.50288,3.5 -6.64765,6.00575 -8.40048,5.37209 -21.57045,-7.79787 C 109.53918,174.94344 108,172.96182 108,170.15667 108,165.84835 111.80717,162 116.06938,162 c 2.57579,0 4.57243,1.37047 10.79546,7.4099 l 7.63516,7.40991 5.7636,-5.15991 c 4.83503,-4.3286 5.7614,-5.69409 5.75,-8.47564 C 145.98361,155.8712 146.40515,156 122.5,156 c -20.16339,0 -21.4908,0.11429 -22.46482,1.93426 C 99.424513,159.07531 99,167.75731 99,179.10552 c 0,16.49691 0.235734,19.49748 1.65499,21.06574 1.49972,1.65718 3.5583,1.82874 21.94329,1.82874 19.83175,0 20.32334,-0.05 21.84502,-2.22251 z m 58.87788,8.03378 c -2.69652,-1.30366 -4.72849,-5.95258 -3.83384,-8.77138 0.3679,-1.15915 1.61861,-2.99232 2.77935,-4.07372 C 204.28478,193.08603 205.96789,193 240.73402,193 h 36.35689 l 2.45454,2.45455 C 281.09269,197.00178 282,199.05163 282,201 c 0,1.94837 -0.90731,3.99822 -2.45455,5.54545 L 277.09091,209 241.29545,208.9323 c -22.88718,-0.0433 -36.58116,-0.44754 -37.97427,-1.12105 z m -2.2486,-46.44613 C 199.93266,159.91597 199,157.72666 199,156.5 c 0,-1.22666 0.93266,-3.41597 2.07258,-4.86514 L 203.14516,149 h 55.49316 c 37.20356,0 56.14644,0.34962 57.47529,1.0608 4.31073,2.30703 4.21251,10.62393 -0.15305,12.96031 C 314.8305,163.6259 292.92365,164 258.63832,164 h -55.49316 z m 207.4097,241.59242 -9.98228,-10.04453 -3.2201,3.79348 -3.22009,3.79349 9.70238,9.75105 9.70238,9.75105 3.5,-3.5 3.5,-3.5 z m -71.01216,11.08068 c 34.85039,-9.53706 61.44921,-37.78674 68.76055,-73.02821 2.58281,-12.44944 2.02756,-32.66776 -1.2068,-43.94276 -9.28718,-32.37519 -33.31649,-56.7772 -65.74203,-66.76168 -8.12304,-2.50125 -10.09466,-2.70411 -26.28184,-2.70411 -16.18718,0 -18.1588,0.20286 -26.28184,2.70411 -32.42554,9.98448 -56.45485,34.38649 -65.74203,66.76168 -3.23436,11.275 -3.78961,31.49332 -1.2068,43.94276 7.32043,35.28528 34.68029,64.27037 68.7975,72.88423 11.78153,2.97458 11.81367,2.97773 26.93317,2.63885 10.52161,-0.23583 15.98023,-0.8557 21.97012,-2.49487 z m -37.63926,-10.9931 c -8.96904,-1.64472 -16.39805,-4.24728 -25.33086,-8.87401 -7.31493,-3.78876 -10.88215,-6.53474 -19.05261,-14.66634 -8.32197,-8.28239 -10.85061,-11.56086 -14.68792,-19.04345 -5.94156,-11.58577 -8.72906,-21.50647 -9.46148,-33.67338 C 229.04436,289.35039 251.64176,256.28842 288,243.828 c 9.12054,-3.12572 10.11912,-3.25576 25,-3.25576 14.88088,0 15.87946,0.13004 25,3.25576 36.35824,12.46042 58.95564,45.52239 56.70201,82.95996 -0.73242,12.16691 -3.51992,22.08761 -9.46148,33.67338 -3.82225,7.45321 -6.39863,10.80197 -14.68792,19.09127 -8.2893,8.28929 -11.63806,10.86567 -19.09127,14.68792 -12.61145,6.46757 -21.49877,8.79022 -35.46134,9.26763 -6.325,0.21626 -13.60111,0.008 -16.16914,-0.46302 z m 34.00406,-18.37453 c 10.37602,-3.57813 17.52507,-8.09775 25.63151,-16.20418 12.54516,-12.54517 18.49822,-25.83327 19.3094,-43.10143 0.93819,-19.9718 -5.22412,-35.97596 -19.20972,-49.88962 -17.00105,-16.91362 -40.12524,-23.34267 -62.95663,-17.50338 -17.90295,4.5788 -34.29716,17.64066 -42.34918,33.74112 -10.32259,20.6406 -9.60697,44.54082 1.91891,64.08791 4.24054,7.19166 15.78208,18.75255 22.92221,22.96063 11.70799,6.90019 21.53364,9.27403 36.39858,8.79376 8.49573,-0.27448 12.66988,-0.93125 18.33492,-2.88481 z M 387,153.7344 C 387,58.256182 387.54983,64.652529 378.96412,60.25 374.63061,58.027887 374.08307,58 334.78811,58 H 295 v 7.5 7.5 h 35.57692 35.57693 l 2.92307,2.923077 2.92308,2.923077 0.0103,74.326926 0.0103,74.32692 6.73967,5.14762 c 3.70683,2.83119 7.07718,5.19369 7.48968,5.25 0.4125,0.0563 0.75,-37.81714 0.75,-84.16322 z M 279,66 V 45 H 257.63486 C 232.90009,45 232.43912,44.84885 229.41603,35.747202 226.94324,28.302328 218.26315,19.749564 210.9874,17.588898 199.94186,14.308726 190.15546,16.357453 182.04736,23.647323 177.00297,28.182664 173,34.32814 173,37.537085 c 0,0.889219 -1.31538,2.932146 -2.92308,4.539838 L 167.15385,45 H 145.57692 124 V 66 87 H 201.5 279 Z M 197.357,48.054984 C 191.76552,45.677048 190.18514,37.221429 194.41342,32.305764 196.41742,29.975972 197.61959,29.5 201.5,29.5 c 5.9774,0 9.5,3.522604 9.5,9.5 0,6.990597 -7.22365,11.784999 -13.643,9.054984 z" id="path1"/>
  </g>
</svg>