<?xml version="1.0" encoding="UTF-8" standalone="no"?>
<svg width="38" height="38" viewBox="0 0 38 38" fill="none" version="1.1" id="svg2" sodipodi:docname="features_icon03.svg" xmlns:inkscape="http://www.inkscape.org/namespaces/inkscape" xmlns:sodipodi="http://sodipodi.sourceforge.net/DTD/sodipodi-0.dtd" xmlns="http://www.w3.org/2000/svg" xmlns:svg="http://www.w3.org/2000/svg">
  <defs id="defs2"/>
  <sodipodi:namedview id="namedview2" pagecolor="#ffffff" bordercolor="#000000" borderopacity="0.25" inkscape:showpageshadow="2" inkscape:pageopacity="0.0" inkscape:pagecheckerboard="0" inkscape:deskcolor="#d1d1d1"/>
  <path d="m 18.086,25.9519 c -0.8272,0.8568 -1.6692,1.684 -2.4669,2.5408 -0.1329,0.1477 -0.1772,0.4432 -0.1625,0.6647 0.4727,4.5202 -2.9248,8.5087 -7.38592,8.6564 C 3.49139,37.9615 -0.157267,34.2981 0.00522418,29.7188 0.167715,25.2872 4.20044,21.8454 8.60247,22.3476 8.85359,22.3771 9.19334,22.2885 9.37061,22.126 10.2126,21.3579 10.9955,20.5602 11.7932,19.7773 10.4637,17.916 10.4637,17.916 11.675,16.4536 11.5421,16.3059 11.4091,16.1286 11.2614,15.9809 9.72513,14.4151 8.17408,12.8345 6.57872,11.2982 6.31282,11.0471 5.86967,10.8846 5.50037,10.8403 4.86518,10.7664 4.22999,10.8108 3.58002,10.8255 2.98915,10.8255 2.57553,10.5596 2.39827,10.0131 1.61536,7.67911 0.83245,5.35993 0.0938556,3.01119 0.00522418,2.71576 0.197259,2.31692 0.28589,1.97716 0.300662,1.88853 0.404065,1.82944 0.477925,1.75558 2.76757,-0.504516 1.99943,-0.238622 4.79132,0.647692 6.46054,1.16471 8.10022,1.77036 9.75468,2.28737 c 0.78292,0.25112 1.19652,0.72382 1.06362,1.52151 -0.2512,1.69877 0.3692,2.91006 1.6692,4.01795 1.4033,1.18175 2.6294,2.58507 3.9293,3.88497 1.7431,-1.2113 1.7431,-1.2113 3.3384,0.133 0.842,-0.842 1.684,-1.684 2.5113,-2.55555 0.1181,-0.13295 0.1329,-0.39884 0.1181,-0.60565 -0.517,-4.80086 3.2203,-8.848363 8.036,-8.6415562 0.9306,0.0443157 1.8908,0.3249812 2.7771,0.6499632 0.9897,0.354523 1.1374,1.211293 0.4284,1.979433 -0.7682,0.82723 -1.5363,1.684 -2.3783,2.42259 -0.6795,0.60565 -0.8272,1.28516 -0.65,2.14193 0.7682,0.17726 1.4477,0.14772 2.0533,-0.51702 0.7829,-0.85677 1.6397,-1.62491 2.4817,-2.42259 0.8272,-0.78291 1.6544,-0.63519 2.0828,0.41361 1.0931,2.68849 0.842,5.28834 -0.8715,7.62234 -1.7136,2.3487 -4.1066,3.3532 -7.0019,3.1316 -0.4432,-0.0295 -0.7238,0.0295 -1.034,0.3545 -0.7534,0.7682 -1.5511,1.5068 -2.334,2.2749 1.4181,1.4181 2.7476,2.7623 4.0771,4.0918 2.1714,2.1715 4.3577,4.343 6.5291,6.5292 1.7136,1.7135 1.7136,3.5896 0.0148,5.3031 -0.8568,0.8568 -1.6988,1.7135 -2.5555,2.5555 -1.6988,1.6988 -3.5748,1.684 -5.3031,-0.0147 C 25.2061,33.0425 21.7051,29.5563 18.086,25.9519 Z m 15.0083,8.553 c -0.3546,-0.2955 -0.5761,-0.4432 -0.7682,-0.6352 -3.0725,-3.0578 -6.1303,-6.1156 -9.1881,-9.1881 -0.1625,-0.1625 -0.3397,-0.2955 -0.4579,-0.4727 -0.3545,-0.5023 -0.3545,-1.0341 0.0886,-1.4772 0.4432,-0.4432 0.975,-0.4284 1.4772,-0.0591 0.1773,0.1329 0.325,0.2954 0.4727,0.4579 2.5112,2.5112 5.0077,5.0077 7.5189,7.5189 0.7534,0.7534 1.4772,1.5067 2.2158,2.2453 1.4919,-1.226 1.5215,-1.6396 0.2068,-2.9543 -3.1169,-3.1169 -6.2338,-6.219 -9.3358,-9.3507 -0.4875,-0.4874 -1.0045,-0.7976 -1.684,-0.9749 -2.0977,-0.5318 -3.501,-1.876 -4.018,-3.9884 -0.2363,-0.9897 -0.8272,-1.6249 -1.4624,-2.1567 -1.5658,1.5658 -3.1169,3.0873 -4.6679,4.6384 0.5613,0.709 1.2556,1.2704 2.2748,1.5067 1.8318,0.4284 3.176,1.6101 3.6782,3.3828 0.3841,1.3147 1.0932,2.2601 2.0386,3.1316 0.6499,0.6057 1.2556,1.2409 1.876,1.876 2.3487,2.3488 4.6975,4.6975 7.0462,7.0462 0.7238,0.7091 1.2261,0.7091 1.9646,0 0.1625,-0.1329 0.3841,-0.2806 0.7239,-0.5465 z M 7.64229,24.5191 c -2.08283,0.1034 -3.81114,1.0635 -4.80086,3.0578 -1.01926,2.0237 -0.82723,4.0327 0.54656,5.8349 1.35901,1.7726 3.2055,2.4816 5.40651,2.068 3.0282,-0.5613 4.9486,-3.3827 4.3873,-6.4553 -0.133,-0.7534 0.0147,-1.3147 0.5761,-1.8465 0.9601,-0.8863 1.8464,-1.8317 2.7771,-2.7476 0.9011,-0.901 0.9011,-1.1817 -0.0887,-1.9942 -0.384,-0.3102 -0.8863,-0.517 -1.359,-0.709 -0.3397,-0.1477 -0.7386,-0.133 -1.0488,-0.3102 -0.4431,-0.2364 -0.709,-0.0887 -1.0045,0.2363 -0.6056,0.65 -1.2999,1.2113 -1.8612,1.8908 -0.7829,0.9307 -1.6397,1.4624 -2.88054,1.0045 C 8.14454,24.5043 7.9525,24.5338 7.64229,24.5191 Z M 30.908,2.56804 C 30.8194,2.42032 30.716,2.28737 30.6274,2.13965 c -0.7682,0.11818 -1.5511,0.16249 -2.2897,0.38407 -2.6294,0.82723 -4.21,3.51571 -3.693,6.2042 0.1625,0.81245 0.0148,1.41808 -0.6351,1.96468 -0.5762,0.5022 -1.0341,1.1374 -1.6397,1.5953 -0.9307,0.7091 -1.1818,1.4772 -0.7239,2.6147 0.3398,0.8567 0.6943,1.6101 1.4625,2.1419 0.3693,0.2659 0.6056,0.2363 0.9306,-0.1034 1.0193,-1.0636 2.1124,-2.0681 3.1169,-3.1464 0.5761,-0.6204 1.1817,-0.7534 1.9794,-0.6057 2.8657,0.5614 5.7315,-1.359 6.3224,-4.22473 0.1181,-0.59088 0.1181,-1.2113 0.1772,-1.83172 -0.0738,-0.01477 -0.1329,-0.02954 -0.2068,-0.04431 -0.6647,0.64996 -1.3147,1.3147 -2.0237,1.92034 -0.2955,0.25113 -0.7091,0.47271 -1.0931,0.50225 -0.9307,0.07386 -1.8761,0.07386 -2.8067,0 C 29.1649,9.48129 28.5888,9.24493 28.5298,9.00858 28.1752,7.60525 28.0423,6.12806 28.5741,4.75428 28.7956,4.17817 29.4308,3.74979 29.9035,3.29186 30.2137,3.01119 30.5683,2.80439 30.908,2.56804 Z M 14.8805,13.3368 C 14.7033,13.1447 14.5408,12.9675 14.3635,12.7902 13.034,11.4459 11.7489,10.0426 10.3308,8.78701 9.08994,7.69389 8.29226,6.51213 8.61724,4.78382 8.6911,4.35544 8.45475,4.19295 8.07068,4.07477 6.5344,3.5873 4.99813,3.04074 3.44708,2.55327 3.2255,2.47941 2.8562,2.55327 2.69371,2.71576 2.54599,2.86348 2.47213,3.24755 2.54599,3.46912 2.90052,4.66565 3.3289,5.8474 3.71297,7.04392 4.24476,8.62451 4.24476,8.65406 5.88444,8.60974 6.68212,8.59497 7.273,8.83132 7.83433,9.40742 9.47401,11.0619 11.1285,12.672 12.7534,14.3117 c 0.192,0.192 0.384,0.3693 0.5761,0.5613 0.5318,-0.5318 1.0192,-1.0192 1.551,-1.5362 z" fill="#FE5D14" id="path1" style="fill:#f9f9f9"/>
  <path d="m 7.74378,33.3823 c -1.81694,-0.0148 -3.32368,-1.551 -3.29413,-3.368 0.02954,-1.8169 1.56582,-3.3089 3.38276,-3.2646 1.7874,0.0296 3.26459,1.5363 3.24979,3.3385 0,1.8022 -1.52148,3.3089 -3.33842,3.2941 z m 0.05909,-2.2158 c 0.5761,-0.0147 1.06357,-0.517 1.07834,-1.0931 0,-0.6056 -0.51701,-1.1226 -1.13743,-1.1079 -0.57611,0.0148 -1.06358,0.517 -1.07835,1.0931 0,0.6057 0.51702,1.1227 1.13744,1.1079 z" fill="#FE5D14" id="path2" style="fill:#f9f9f9"/>
</svg>