<?xml version="1.0" encoding="UTF-8" standalone="no"?>
<!-- Created with Inkscape (http://www.inkscape.org/) -->
<svg version="1.1" id="svg1" width="451.9787" height="512.06146" viewBox="0 0 451.9787 512.06146" sodipodi:docname="01J4VPRYG0C62MXEDF78TN2NAK.png" xmlns:inkscape="http://www.inkscape.org/namespaces/inkscape" xmlns:sodipodi="http://sodipodi.sourceforge.net/DTD/sodipodi-0.dtd" xmlns="http://www.w3.org/2000/svg" xmlns:svg="http://www.w3.org/2000/svg">
  <defs id="defs1"/>
  <sodipodi:namedview id="namedview1" pagecolor="#ffffff" bordercolor="#000000" borderopacity="0.25" inkscape:showpageshadow="2" inkscape:pageopacity="0.0" inkscape:pagecheckerboard="0" inkscape:deskcolor="#d1d1d1"/>
  <g inkscape:groupmode="layer" inkscape:label="Image" id="g1" transform="translate(-30.021312,-0.06803402)">
    <path style="fill:#f9f9f9" d="m 47.717595,510.5628 c -7.859485,-2.80394 -13.992559,-8.89984 -16.562431,-16.46202 -0.859899,-2.53037 -1.14955,-59.14664 -1.133202,-221.5 C 30.043831,55.42787 30.05258,54.480856 32.07854,50 34.56916,44.491445 39.184125,39.536095 44.5,36.662371 L 48.5,34.5 201,34.219753 c 83.875,-0.154135 153.50005,-0.03619 154.72232,0.262106 6.14443,1.499533 8.33374,9.552994 3.82313,14.063596 L 357.09091,51 H 204.96853 52.846154 L 49.923077,53.923077 47,56.846154 V 273.23452 c 0,215.99065 0.0037,216.39236 2.027677,218.56481 1.115223,1.19705 3.027723,2.41883 4.25,2.71506 1.222278,0.29623 79.943783,0.41418 174.936673,0.2621 164.25749,-0.26295 172.80179,-0.36392 174.5,-2.06204 1.69244,-1.69234 1.81175,-9.12234 2.28565,-142.33672 l 0.5,-140.55118 2.80576,-2.41328 c 3.66657,-3.15365 8.0609,-3.13752 11.23969,0.0413 L 422,209.90909 V 351.2582 492.60731 l -2.59023,5.19792 c -3.17327,6.36792 -8.31586,10.77669 -14.84127,12.72349 -7.07961,2.11215 -350.934013,2.14499 -356.850905,0.0341 z M 66.923077,475.07692 64,472.15385 V 273.13269 74.111527 L 66.413285,71.305764 68.82657,68.5 182.16329,68.257792 c 89.40108,-0.191057 113.8583,0.02319 115.80648,1.014463 5.40604,2.750702 6.3731,9.384879 2.00479,13.753181 C 298.09206,84.907942 296.53141,85 266.5,85 H 235 v 90 90 h 68 68 v -27.07692 -27.07693 l 2.92308,-2.92307 c 3.72963,-3.72963 8.1818,-3.90911 11.62237,-0.46853 L 388,209.90909 387.9682,341.20455 c -0.0246,101.63269 -0.30703,131.65391 -1.25,132.88211 -0.67001,0.87266 -2.20112,2.11016 -3.40246,2.75 C 381.68203,477.70678 341.90121,478 225.48882,478 H 69.846154 Z M 218,371.5 V 282 H 149.5 81 v 89.5 89.5 h 68.5 68.5 z m 153,0 V 282 h -68 -68 v 89.5 89.5 h 68 68 z m -114.5,11.34527 c -3.21095,-1.75626 -4.5,-3.98232 -4.5,-7.77109 0,-3.32628 2.22374,-5.76731 36.26531,-39.80887 C 322.31675,301.21386 324.74709,299 328.07674,299 c 5.63619,0 10.12711,5.63165 8.52251,10.68729 -0.31974,1.0074 -16.91217,18.13988 -36.87209,38.07217 -37.75567,37.70344 -38.03172,37.92749 -43.22716,35.08581 z m -2.04545,-44.29982 C 252.83796,336.92886 252,334.96175 252,332.78335 c 0,-2.93329 1.72689,-5.03175 15.26173,-18.54545 C 280.74123,300.77944 282.90692,299 285.80718,299 c 4.61786,0 8.19282,3.76786 8.19282,8.63487 0,3.46677 -1.03024,4.75603 -14.81967,18.54546 C 265.3909,339.96976 264.10164,341 260.63487,341 c -2.62243,0 -4.45266,-0.72688 -6.18032,-2.45455 z M 217.5,175 V 85.5 L 149.25,85.24306 81,84.98612 V 175 265.01388 L 149.25,264.75694 217.5,264.5 Z M 103,186.73016 c -3.244238,-1.67232 -5.360126,-6.13369 -4.531108,-9.55389 C 98.886946,175.45155 111.81314,161.78906 134.82431,138.75 170.04865,103.48296 170.58589,103 174.5912,103 c 5.15972,0 8.4088,3.11801 8.4088,8.06959 0,3.19208 -2.61924,6.05556 -36.25,39.63038 -22.26938,22.23234 -37.21418,36.40745 -38.75,36.75429 -1.375,0.31052 -3.625,-0.0153 -5,-0.7241 z m -2.07692,-44.65324 c -5.339572,-5.33957 -4.629917,-6.71175 12.285,-23.75419 C 126.80728,104.62101 128.77137,103 131.77382,103 c 1.84671,0 4.18075,0.4405 5.18674,0.97889 2.66689,1.42728 4.18874,6.48606 2.95073,9.80853 -1.17967,3.16589 -25.13872,27.67637 -29.11163,29.78165 -4.04165,2.1417 -6.63445,1.74998 -9.87658,-1.49215 z M 297.52702,253.75 c -2.17949,-1.8974 -2.72605,-3.50945 -3.48764,-10.28663 -1.93547,-17.22313 -6.30116,-27.88452 -14.967,-36.55074 -6.53958,-6.53987 -13.44908,-9.56192 -24.13211,-10.5548 -6.18884,-0.57519 -7.3086,-1.00685 -9.56351,-3.68667 -1.99197,-2.36732 -2.41909,-3.70952 -1.94105,-6.0997 0.99783,-4.98914 3.54503,-6.69117 11.28541,-7.54085 3.82812,-0.42022 9.30284,-1.54213 12.16603,-2.49313 6.80369,-2.25982 15.76179,-10.52544 19.97569,-18.43152 3.62523,-6.80163 7.13716,-19.40665 7.13716,-25.6167 0,-5.38257 1.71366,-10.26565 4.03944,-11.51037 1.00599,-0.53839 3.35522,-0.97889 5.2205,-0.97889 5.49106,0 7.37823,2.96593 8.65329,13.59978 2.14578,17.89546 8.68741,31.06259 19.30614,38.85979 4.41061,3.23865 14.40849,6.54043 19.80462,6.54043 5.85571,0 8.90128,1.5769 10.51781,5.44581 2.86751,6.8629 -0.97293,10.89778 -11.42827,12.0069 -9.31081,0.9877 -16.3317,3.98004 -22.44281,9.56526 -8.87073,8.10734 -14.33865,21.10645 -16.14075,38.37208 -0.55298,5.29797 -1.26446,7.43535 -3.07911,9.25 -3.01754,3.01754 -7.53178,3.06298 -10.92384,0.10995 z m 9.25398,-49.22891 c 1.80455,-2.9822 6.11951,-8.00871 9.58881,-11.17003 l 6.30782,-5.74784 -4.85425,-3.83706 c -2.66983,-2.11038 -7.18084,-7.1837 -10.02445,-11.27403 l -5.17022,-7.43698 -2.27664,4.00811 c -3.27007,5.75706 -8.5761,11.97653 -13.1486,15.41216 l -3.96,2.97541 6.62827,6.15859 c 3.64554,3.38722 7.97826,8.45186 9.62826,11.25474 1.65,2.80288 3.225,5.09232 3.5,5.08763 0.275,-0.005 1.97645,-2.4485 3.781,-5.4307 z m 86.53437,-17.52807 c -3.30136,-1.33015 -4.55132,-4.58545 -5.43408,-14.1521 -1.62735,-17.63599 -7.90286,-35.07843 -16.97626,-47.18458 -4.42052,-5.89806 -13.23897,-13.25557 -20.05604,-16.73338 C 345.32612,106.1054 333.53181,103.20667 324.5,102.44707 315.01716,101.64954 312,99.673391 312,94.259945 312,87.529986 315.68551,85 325.48926,85 c 7.35905,0 19.4366,-3.326498 27.54232,-7.585934 19.12359,-10.049161 32.44743,-34.20368 34.8998,-63.269107 0.72527,-8.595892 1.06418,-9.7443909 3.49169,-11.8324445 3.47124,-2.98583439 7.98701,-2.99334311 10.96213,-0.018228 1.90337,1.9033771 2.50083,4.1298867 3.50655,13.0675985 4.74347,42.15485 26.23513,66.547874 61.24041,69.507826 C 478.72952,85.850353 482,87.797101 482,93.719769 c 0,5.754526 -3.21809,7.914871 -13.08594,8.784741 -11.16401,0.98414 -17.87547,2.77413 -26.86773,7.16581 -19.69747,9.61992 -32.901,32.20272 -36.05125,61.66061 -1.37711,12.87728 -1.54485,13.38489 -5.01629,15.18004 -3.23195,1.67131 -4.51191,1.75182 -7.66342,0.48205 z M 400.93375,128.25 c 6.79714,-13.05523 18.0136,-25.16607 29.246,-31.578023 2.09266,-1.194587 3.80438,-2.396977 3.8038,-2.671977 -5.7e-4,-0.275 -2.64841,-2.205506 -5.88407,-4.290013 -11.31367,-7.288579 -25.51737,-23.927299 -29.25927,-34.275339 -0.68309,-1.889056 -1.48909,-3.432613 -1.7911,-3.430125 -0.30201,0.0025 -2.55386,3.939987 -5.0041,8.75 -3.5191,6.908247 -6.35515,10.66115 -13.5,17.864356 -4.97476,5.015384 -11.42486,10.463721 -14.33358,12.107416 l -5.28856,2.988536 6.69636,4.362849 c 12.00376,7.82076 25.71931,23.98922 29.46527,34.73488 0.61113,1.75309 1.26935,3.18744 1.4627,3.18744 0.19335,0 2.1673,-3.4875 4.38655,-7.75 z" id="path1"/>
  </g>
</svg>