<?xml version="1.0" encoding="UTF-8" standalone="no"?>
<svg width="50" height="39" viewBox="0 0 50 39" fill="none" version="1.1" id="svg6" sodipodi:docname="features_icon02.svg" xmlns:inkscape="http://www.inkscape.org/namespaces/inkscape" xmlns:sodipodi="http://sodipodi.sourceforge.net/DTD/sodipodi-0.dtd" xmlns="http://www.w3.org/2000/svg" xmlns:svg="http://www.w3.org/2000/svg">
  <defs id="defs6"/>
  <sodipodi:namedview id="namedview6" pagecolor="#ffffff" bordercolor="#000000" borderopacity="0.25" inkscape:showpageshadow="2" inkscape:pageopacity="0.0" inkscape:pagecheckerboard="0" inkscape:deskcolor="#d1d1d1"/>
  <path d="m 26.9364,17.8729 h 19.2927 c 1.6535,0 1.886,0.2238 1.886,1.8165 0,5.526 0,11.0547 0,16.586 0,1.4788 -0.2588,1.7326 -1.7627,1.7326 H 7.3566 c -1.48576,0 -1.70816,-0.2138 -1.70816,-1.6606 0,-5.5953 0,-11.1906 0,-16.7859 0,-1.4628 0.2244,-1.6866 1.68793,-1.6866 6.53203,-0.004 13.06533,-0.0046 19.60003,-0.002 z M 29.641,35.9417 V 19.9352 H 7.74668 v 16.0065 z m 4.9244,0 c 0,-2.1482 -0.0122,-4.2384 0,-6.3287 -0.024,-0.6307 0.0289,-1.2621 0.1576,-1.8804 0.5559,-2.1102 2.5248,-3.3631 4.7747,-3.1113 2.0942,0.2338 3.679,1.9983 3.7437,4.2943 0.0566,1.9984 0.0121,3.9967 0.0202,5.995 0,0.3477 0.0384,0.6954 0.0566,0.9991 h 2.6987 V 19.9232 H 31.804 v 16.0025 z m 6.6546,0 c 0,-2.4679 0,-4.8219 0,-7.1759 -0.0126,-0.2664 -0.0736,-0.5283 -0.18,-0.7734 -0.376,-0.9572 -1.3402,-1.5007 -2.4257,-1.3988 -0.942,0.0959 -1.9022,0.8193 -1.9325,1.7465 -0.0789,2.5119 -0.0263,5.0258 -0.0263,7.5936 z" fill="#FE5D14" id="path1" style="fill:#f9f9f9"/>
  <path d="m 38.8609,2.59986 c -0.9682,1.3089 -1.8597,2.5119 -2.7492,3.71689 -2.1791,2.95751 -4.3743,5.90705 -6.5252,8.88655 -0.1854,0.2919 -0.4475,0.5288 -0.7582,0.6854 -0.3107,0.1565 -0.6585,0.227 -1.0065,0.2038 -8.4517,-0.022 -16.9054,0 -25.35707,-0.038 -0.49121,0 -1.18052,-0.2457 -1.41501,-0.5994 C 0.869809,15.1753 1.14469,14.4559 1.42163,14.0722 4.64181,9.63994 7.90647,5.23765 11.1408,0.813376 c 0.1712,-0.261632 0.4096,-0.473545 0.6909,-0.61401 0.2814,-0.1404644 0.5955,-0.20442535 0.9101,-0.1853172 8.6215,0.0219815 17.2429,-2e-6 25.8624,0.0479576 0.2704,0.017016 0.5345,0.0883536 0.776,0.2096376 0.2416,0.121285 0.4556,0.289977 0.629,0.495774 3.2343,4.466242 6.4039,8.972452 9.5978,13.466682 0.4043,0.5755 0.6327,1.185 -0.0566,1.6526 -0.7318,0.4995 -1.229,0.0399 -1.6576,-0.5675 C 45.1356,11.4184 42.3729,7.52172 39.6049,3.629 39.3987,3.31726 39.1763,3.0235 38.8609,2.59986 Z M 36.706,2.10028 C 36.552,2.06609 36.3961,2.04074 36.2391,2.02434 c -7.6148,0 -15.2296,-0.01399 -22.8424,0.02198 -0.374,0 -0.8571,0.33573 -1.0976,0.65746 -2.62791,3.50704 -5.20932,7.04207 -7.80285,10.57112 -0.14958,0.1998 -0.27899,0.4236 -0.4872,0.7393 0.35376,0.028 0.57413,0.058 0.79447,0.058 7.44698,0 14.89408,0.012 22.34108,-0.026 0.2348,-0.0209 0.4629,-0.0878 0.6712,-0.197 0.2083,-0.1091 0.3924,-0.2581 0.5417,-0.4384 1.2775,-1.6326 2.4803,-3.3212 3.7094,-4.99582 z" fill="#FE5D14" id="path2" style="fill:#f9f9f9"/>
  <path d="m 18.8335,24.0017 c 1.8537,0 3.7053,0 5.559,0 1.1462,0 1.4635,0.2958 1.4756,1.3988 0.0162,1.7319 0.0162,3.4638 0,5.1957 -0.0101,1.0831 -0.3517,1.3988 -1.4817,1.3988 -3.7397,0.008 -7.4794,0.008 -11.2191,0 -1.1482,0 -1.4392,-0.2938 -1.4473,-1.4168 -0.0121,-1.7319 -0.0121,-3.4638 0,-5.1957 0,-1.157 0.2466,-1.3788 1.4554,-1.3848 1.884,-0.002 3.7721,0.004 5.6581,0.004 z m 4.9566,2.0643 h -9.9637 v 3.8707 h 9.9637 z" fill="#FE5D14" id="path3" style="fill:#f9f9f9"/>
  <path d="m 17.1397,12.3936 c -0.3052,-0.2598 -0.7317,-0.4496 -0.7883,-0.7174 -0.0765,-0.4019 0.0099,-0.8175 0.2405,-1.157 1.1038,-1.34088 2.2782,-2.62578 3.4263,-3.93069 L 21.213,5.23565 c 0.4406,-0.49558 0.9743,-0.64545 1.5079,-0.21981 0.5337,0.42564 0.4913,0.98716 0.0506,1.48874 -1.5626,1.78649 -3.1292,3.57102 -4.7161,5.33552 -0.2041,0.2258 -0.5437,0.3337 -0.9157,0.5535 z" fill="#FE5D14" id="path4" style="fill:#f9f9f9"/>
  <path d="m 29.003,5.71314 c -0.1514,0.30553 -0.3278,0.59827 -0.5276,0.87526 -1.5161,1.73654 -3.0443,3.4591 -4.5725,5.1856 -0.4589,0.5176 -1.0108,0.7274 -1.5707,0.2158 -0.5155,-0.4676 -0.4043,-1.0191 0.0222,-1.5047 1.5444,-1.7545 3.0747,-3.52302 4.6716,-5.23158 0.2547,-0.27377 0.8368,-0.41166 1.225,-0.34971 0.285,0.04396 0.5033,0.51757 0.752,0.80933 z" fill="#FE5D14" id="path5" style="fill:#f9f9f9"/>
  <path d="m 11.3251,12.3737 c -0.2749,-0.2438 -0.6953,-0.4397 -0.7478,-0.7074 -0.0757,-0.4044 0.0122,-0.822 0.2446,-1.163 1.2836,-1.53675 2.6278,-3.0215 3.9559,-4.52423 0.2648,-0.29975 0.4852,-0.71941 0.8228,-0.85729 0.4043,-0.16386 1.0592,-0.26775 1.3119,-0.05393 0.2526,0.21382 0.3659,1.02513 0.1637,1.27092 -1.5969,1.92638 -3.2768,3.78483 -4.9525,5.64523 -0.1476,0.1759 -0.4569,0.2298 -0.7986,0.3897 z" fill="#FE5D14" id="path6" style="fill:#f9f9f9"/>
</svg>