<?xml version="1.0" standalone="no"?>
<!DOCTYPE svg PUBLIC "-//W3C//DTD SVG 20010904//EN"
 "http://www.w3.org/TR/2001/REC-SVG-20010904/DTD/svg10.dtd">
<svg version="1.0" xmlns="http://www.w3.org/2000/svg"
 width="260.000000pt" height="260.000000pt" viewBox="0 0 260.000000 260.000000"
 preserveAspectRatio="xMidYMid meet">
<metadata>
Created by potrace 1.14, written by Peter Selinger 2001-2017
</metadata>
<g transform="translate(0.000000,260.000000) scale(0.100000,-0.100000)"
fill="#000000" stroke="none">
<path d="M862 1821 c-21 -22 -47 -53 -92 -111 -19 -25 -43 -54 -52 -65 -9 -11
-25 -30 -35 -41 -10 -12 -52 -63 -93 -114 -41 -51 -101 -125 -133 -164 -32
-39 -64 -78 -70 -86 -21 -26 -91 -113 -109 -135 -192 -234 -256 -318 -252
-328 3 -10 43 -13 168 -13 91 1 167 4 171 7 3 4 6 62 6 130 0 139 -1 135 83
232 10 12 39 49 64 82 25 33 49 62 52 65 3 3 48 59 100 125 52 66 97 122 100
125 3 3 34 41 69 85 34 44 69 83 76 87 11 7 60 -42 164 -161 18 -21 151 -168
166 -185 6 -6 70 -78 144 -161 73 -82 150 -168 170 -190 21 -22 78 -85 128
-141 l91 -100 158 2 c628 7 626 7 632 22 3 9 -19 37 -59 74 -35 33 -127 120
-204 193 -77 73 -158 150 -180 171 -22 20 -101 95 -176 166 l-136 129 1 102
c1 56 0 107 -2 114 -5 15 -239 16 -248 1 -4 -6 -7 -32 -7 -59 0 -27 -4 -52 -9
-55 -7 -4 -164 42 -248 73 -8 3 -106 36 -218 74 -193 64 -204 67 -220 50z"/>
<path d="M810 1270 c-22 -5 -25 -11 -25 -50 l0 -45 55 0 55 0 1 43 c1 23 -2
45 -8 48 -14 9 -50 11 -78 4z"/>
<path d="M990 1270 c-32 -5 -34 -7 -33 -42 0 -21 1 -42 2 -48 1 -5 25 -10 55
-10 60 0 65 6 58 67 -4 35 -23 42 -82 33z"/>
<path d="M792 1104 c-12 -9 -13 -39 -2 -91 1 -5 87 3 98 10 6 5 12 26 12 48 0
24 -5 39 -12 40 -65 4 -83 3 -96 -7z"/>
<path d="M979 1112 c-19 -3 -29 -50 -18 -80 6 -16 16 -20 53 -18 25 1 48 5 52
8 8 8 8 77 0 85 -7 7 -62 10 -87 5z"/>
</g>
</svg>
