<svg xmlns="http://www.w3.org/2000/svg" width="168" height="100" viewBox="0 0 168 100" class="header__logo-svg--desktop" fill="none">
    <path fill="#D71920" d="M100 0H0v100h100V0Z" id="background-2"></path>
    <path fill="#fff"
          d="m49.947 55.12 3.447-11.497 3.378 11.497h-6.825Zm42.01-13.49v-6.677H68.675V63.09l-10.255-27.5h-9.776l-9.381 27.42v-15.1H25.99v6.197h4.373c0 2.546-3.735 3.735-5.802 3.735-2.068 0-6.2-.476-6.2-9.059 0-8.583 5.801-8.503 5.801-8.503 4.929 0 5.566 3.895 5.566 3.895h8.82c-1.51-8.347-8.265-10.335-13.827-10.494-5.565-.16-15.102 3.34-15.102 15.102 0 11.763 6.52 16.209 13.511 16.372 6.756.16 9.696-4.293 9.696-4.293v3.974h14.15l1.269-3.814h10.507l1.096 3.735h18.199v-10.49h11.049v-6.597h-11.05v-6.04h13.91Z"
          id="logo-header-2"></path>
    <path fill="#494949"
          d="M120.071 17.5h1.958l1.624 6.904 1.662-6.904h1.468l1.676 6.918 1.609-6.918h1.946l-2.576 9.532h-1.728l-1.673-6.763-1.663 6.764h-1.778l-2.525-9.533ZM137.234 22.768c-.063-.67-.773-1.61-2.009-1.597-1.25 0-1.932.903-1.996 1.597h4.007-.002Zm-4.031 1.288c.078 1.135 1.082 1.765 2.047 1.752.825 0 1.379-.373 1.7-.953h1.741c-.336.786-.838 1.378-1.431 1.778a3.507 3.507 0 0 1-2.023.619c-2.178 0-3.736-1.767-3.736-3.737 0-1.971 1.57-3.775 3.709-3.775 1.058 0 1.985.399 2.642 1.083.863.888 1.185 1.996 1.044 3.232h-5.695l.002.001ZM126.629 37.205c0-1.017-.735-2.176-2.164-2.176-.618 0-1.147.244-1.535.642a2.241 2.241 0 0 0-.604 1.56c0 .617.232 1.147.618 1.532.387.388.928.632 1.535.632 1.288 0 2.15-1.017 2.15-2.178v-.013.001Zm-5.914-3.53h1.584v1.03c.502-.707 1.327-1.249 2.5-1.249 2.474 0 3.518 2.1 3.518 3.813 0 2.01-1.432 3.699-3.505 3.699-1.378 0-2.126-.708-2.408-1.161v3.414h-1.689v-9.547.001ZM129.362 33.675h1.597v.927c.31-.63.889-1.133 1.958-1.146v1.7h-.076c-1.186 0-1.79.554-1.79 1.778v3.816h-1.689v-7.075ZM134.596 37.218c0 1.237.94 2.153 2.098 2.153s2.088-.915 2.088-2.165-.927-2.164-2.088-2.164-2.098.915-2.098 2.164v.014-.002Zm-1.69-.026c0-1.804 1.327-3.724 3.788-3.724s3.789 1.92 3.789 3.737c0 1.817-1.327 3.75-3.789 3.75s-3.788-1.92-3.788-3.75v-.013ZM141.928 34.977h-1.174v-1.302h1.174v-2.46h1.686v2.46h1.213v1.302h-1.213v5.773h-1.686v-5.773ZM150.521 36.484c-.064-.67-.773-1.61-2.009-1.598-1.25 0-1.932.903-1.996 1.598h4.007-.002Zm-4.032 1.288c.079 1.134 1.083 1.765 2.048 1.752.825 0 1.379-.373 1.701-.954h1.739c-.336.787-.838 1.379-1.432 1.779a3.504 3.504 0 0 1-2.022.619c-2.177 0-3.736-1.767-3.736-3.738 0-1.97 1.572-3.774 3.709-3.774 1.057 0 1.985.399 2.641 1.082.864.889 1.185 1.997 1.044 3.233h-5.694l.002.001ZM160.252 38.172a3.702 3.702 0 0 1-3.634 2.796c-2.242 0-3.787-1.739-3.787-3.762 0-2.022 1.609-3.75 3.722-3.75 1.778 0 3.287 1.121 3.699 2.847h-1.727c-.296-.747-.98-1.274-1.907-1.274-.619-.014-1.095.205-1.507.605-.361.385-.58.954-.58 1.572 0 1.275.889 2.177 2.087 2.177 1.057 0 1.65-.63 1.907-1.211h1.727ZM161.722 34.977h-1.173v-1.302h1.173v-2.46h1.686v2.46h1.213v1.302h-1.213v5.773h-1.686v-5.773ZM119.981 47.391h1.751l1.405 4.922 1.354-4.69h1.429l1.379 4.69 1.378-4.922h1.753l-2.269 7.073h-1.585l-1.391-4.78-1.353 4.78h-1.584l-2.267-7.073ZM131.115 44.93h1.686v3.298c.4-.748 1.251-1.07 2.088-1.057 1.096 0 1.78.374 2.191.992.425.619.554 1.457.554 2.41v3.891h-1.689v-3.813c0-.541-.089-1.005-.321-1.34-.246-.336-.633-.553-1.226-.553-.67 0-1.069.27-1.302.618-.232.347-.296.773-.296 1.133v3.956h-1.686v-9.533l.001-.002ZM140.342 50.96c0 .876.632 2.15 2.153 2.15.94 0 1.559-.49 1.88-1.132.169-.31.246-.645.271-.993a2.2 2.2 0 0 0-.192-.992c-.297-.67-.954-1.25-1.971-1.25-1.367 0-2.14 1.109-2.14 2.204v.014h-.001Zm5.979 3.504h-1.69v-1.017c-.45.825-1.39 1.236-2.382 1.236-2.268 0-3.595-1.765-3.595-3.76 0-2.23 1.61-3.751 3.595-3.751 1.288 0 2.074.684 2.382 1.25v-1.03h1.69v7.073ZM148.204 48.693h-1.174V47.39h1.174v-2.46h1.688v2.46h1.211v1.302h-1.211v5.771h-1.688v-5.771ZM120.715 61.107h1.584v.89c.155-.323.838-1.11 2.062-1.11.58 0 1.223.168 1.738.722.155.167.336.463.426.645.128-.22.282-.451.516-.67a2.596 2.596 0 0 1 1.803-.696c.591 0 1.339.154 1.88.708.646.67.773 1.25.773 2.706v3.878h-1.686v-3.816c0-.45-.039-.94-.284-1.312-.18-.347-.516-.58-1.109-.58-.594 0-1.006.258-1.223.643-.22.388-.245.76-.245 1.186v3.878h-1.689V64.3c0-.413-.037-.812-.219-1.173-.206-.373-.554-.643-1.16-.656-.618 0-1.005.296-1.212.656-.206.375-.27.812-.27 1.223v3.828h-1.689v-7.075l.004.003ZM134.195 64.675c0 .876.632 2.15 2.152 2.15.941 0 1.559-.49 1.882-1.132.167-.31.244-.646.27-.994a2.202 2.202 0 0 0-.193-.992c-.296-.67-.953-1.25-1.971-1.25-1.366 0-2.139 1.11-2.139 2.205v.013h-.001Zm5.978 3.504h-1.686V67.16c-.452.825-1.392 1.237-2.384 1.237-2.267 0-3.595-1.765-3.595-3.761 0-2.23 1.61-3.75 3.595-3.75 1.288 0 2.074.683 2.384 1.25v-1.031h1.686v7.074-.001ZM142.056 62.407h-1.174v-1.3h1.174v-2.46h1.688v2.46h1.212v1.3h-1.212v5.773h-1.688v-5.773ZM146.141 62.407h-1.171v-1.3h1.171v-2.46h1.688v2.46h1.212v1.3h-1.212v5.773h-1.688v-5.773ZM154.735 63.916c-.064-.67-.773-1.611-2.009-1.598-1.25 0-1.932.903-1.996 1.598h4.006-.001Zm-4.032 1.288c.079 1.134 1.083 1.765 2.048 1.752.825 0 1.378-.374 1.7-.954h1.741c-.336.786-.838 1.379-1.432 1.778a3.504 3.504 0 0 1-2.022.62c-2.177 0-3.736-1.767-3.736-3.738 0-1.97 1.57-3.774 3.709-3.774 1.057 0 1.986.398 2.642 1.082.863.889 1.184 1.996 1.043 3.233h-5.694.001ZM157.418 61.107h1.597v.927c.31-.63.889-1.133 1.958-1.146v1.7h-.076c-1.186 0-1.79.553-1.79 1.778v3.815h-1.689v-7.074ZM164.723 63.013c-.013-.375-.206-.76-.863-.76-.566 0-.837.361-.837.708.014.45.529.697 1.198.89 1.134.309 2.359.642 2.371 2.163.026 1.457-1.2 2.384-2.68 2.384-1.096 0-2.577-.567-2.705-2.28h1.686c.065.76.721.913 1.044.913.528 0 .979-.346.965-.823 0-.606-.528-.773-1.83-1.226-.953-.295-1.726-.823-1.738-1.842 0-1.39 1.173-2.254 2.538-2.254.955 0 2.37.427 2.514 2.127h-1.663ZM120.715 74.821h1.584v.89c.155-.323.838-1.109 2.062-1.109.58 0 1.223.168 1.738.721.155.168.336.464.426.646.128-.22.282-.452.516-.67a2.596 2.596 0 0 1 1.803-.697c.591 0 1.339.154 1.88.708.646.67.773 1.25.773 2.707v3.877h-1.686V78.08c0-.45-.039-.94-.284-1.315-.18-.346-.516-.579-1.109-.579-.594 0-1.006.258-1.223.643-.22.388-.245.76-.245 1.186v3.878h-1.689v-3.878c0-.413-.037-.811-.219-1.173-.206-.373-.554-.642-1.16-.656-.618 0-1.005.296-1.212.656-.206.375-.27.812-.27 1.223v3.828h-1.689v-7.075l.004.004ZM134.195 78.365c0 1.236.94 2.152 2.098 2.152s2.087-.915 2.087-2.164c0-1.25-.926-2.165-2.087-2.165s-2.098.915-2.098 2.165v.013-.001Zm-1.69-.027c0-1.803 1.327-3.724 3.788-3.724s3.789 1.92 3.789 3.737c0 1.817-1.327 3.75-3.789 3.75s-3.788-1.92-3.788-3.75v-.013ZM144.195 76.728c-.014-.374-.206-.76-.864-.76-.567 0-.836.362-.836.709.013.45.528.695 1.198.89 1.134.309 2.358.642 2.37 2.163.027 1.457-1.199 2.383-2.68 2.383-1.095 0-2.576-.567-2.705-2.28h1.687c.065.76.721.914 1.043.914.529 0 .979-.347.966-.823 0-.606-.529-.773-1.83-1.226-.954-.295-1.727-.823-1.739-1.842 0-1.39 1.173-2.254 2.538-2.254.955 0 2.371.427 2.514 2.126h-1.662ZM147.533 76.123h-1.172V74.82h1.172v-2.46h1.687v2.46h1.212v1.302h-1.212v5.773h-1.687v-5.773ZM152.54 72.366h.631l.581 1.506.573-1.506h.625v2.17h-.465v-1.598l-.576 1.598h-.327l-.575-1.588v1.588h-.464v-2.17h-.003Zm-1.266.414h-.483v-.414h1.459v.414h-.483v1.756h-.494V72.78h.001Z"
          id="header-slogan"></path>
</svg>
